<?xml version="1.0" standalone="no"?>
<!DOCTYPE svg PUBLIC "-//W3C//DTD SVG 1.1//EN" "http://www.w3.org/Graphics/SVG/1.1/DTD/svg11.dtd" >
<svg xmlns="http://www.w3.org/2000/svg">
<metadata></metadata>
<defs>
<font id="akzidenz_grotesk_be_boldeBdEx" horiz-adv-x="1706" >
<font-face units-per-em="2048" ascent="1638" descent="-410" />
<missing-glyph horiz-adv-x="768" />
<glyph horiz-adv-x="0" />
<glyph unicode="&#xd;" horiz-adv-x="0" />
<glyph unicode=" "  horiz-adv-x="768" />
<glyph unicode="&#x09;" horiz-adv-x="768" />
<glyph unicode="&#xa0;" horiz-adv-x="768" />
<glyph unicode="!" horiz-adv-x="682" d="M145 1165v281h471v-279q-4 -154 -22 -370l-21 -260h-385l-18 260q-13 146 -16 188.5t-9 179.5zM188 0v379h385v-379h-385z" />
<glyph unicode="&#x22;" horiz-adv-x="811" d="M45 1397q0 63 47 100t107 37q58 0 98.5 -33.5t40.5 -93.5q0 -12 -0.5 -20t-1.5 -17l-109 -534h-65l-111 512q-6 27 -6 49zM473 1397q0 64 46.5 100.5t107.5 36.5q57 0 97 -33.5t40 -93.5q0 -25 -2 -37l-109 -534h-63l-113 512q-4 36 -4 49z" />
<glyph unicode="#" horiz-adv-x="1366" d="M86 381v252h229l27 196h-205v254h240l51 363h256l-53 -363h205l49 363h256l-49 -363h186v-254h-223l-25 -196h201v-252h-238l-53 -381h-256l53 381h-202l-54 -381h-254l52 381h-193zM569 633h203l29 196h-203z" />
<glyph unicode="$" horiz-adv-x="1749" d="M18 418l500 22q4 -28 14 -53q33 -66 93.5 -95t142.5 -44v327q-112 12 -222.5 25t-174.5 26t-108.5 30.5t-84.5 48.5q-52 42 -82 105.5t-30 143.5q0 118 63.5 211.5t177.5 151.5q107 54 216 70.5t241 21.5v236l186 2v-236q108 -10 205 -29t192.5 -63.5t169.5 -130.5 t101 -217l-481 -27q-9 70 -49.5 108t-137.5 56v-260q225 -20 307.5 -30t150 -31t126.5 -62q66 -46 98.5 -109t32.5 -159q0 -176 -127 -297q-62 -62 -144.5 -103t-159 -60.5t-148 -28.5t-134.5 -13v-281h-184v279q-112 6 -195 18.5t-166.5 40.5t-154.5 72q-66 43 -107 85.5 t-67 88.5t-36.5 78t-23.5 82zM561 973q0 -33 17.5 -50.5t59 -28.5t128.5 -24v242q-205 -21 -205 -139zM950 246q85 8 140 41q37 20 59 53t22 74q0 61 -51.5 91.5t-169.5 47.5v-307z" />
<glyph unicode="%" horiz-adv-x="2560" d="M45 987q0 217 123 340q130 130 387 141q161 0 287 -49.5t197 -155.5t71 -264q0 -104 -38 -211.5t-136 -175.5q-138 -94 -381 -94q-103 0 -200.5 23.5t-178.5 97.5q-78 74 -104.5 172.5t-26.5 175.5zM387 985q0 -81 23 -135q42 -113 159 -113q96 0 145.5 64t49.5 184 q0 110 -37 174q-43 80 -156 80q-89 0 -135 -63q-49 -67 -49 -191zM686 66l1012 1441l178 -123l-1012 -1445zM1452 444q0 217 123 340q130 131 387 142q162 0 287.5 -50.5t196.5 -155t71 -263.5q0 -35 -2 -54q-14 -164 -94.5 -260t-197.5 -132t-261 -36q-102 0 -201.5 25 t-177.5 96q-78 74 -104.5 172.5t-26.5 175.5zM1794 442q0 -81 23 -135q42 -112 159 -112q96 0 145.5 64t49.5 183q0 110 -37 174q-43 80 -156 80q-89 0 -135 -63q-49 -66 -49 -191z" />
<glyph unicode="&#x26;" horiz-adv-x="1749" d="M23 395q0 100 41 170.5t107 115.5t132 71t170 57q-44 61 -66 107t-22 118q0 69 29 127t75 99q130 112 449 112q196 0 319 -53q68 -27 134.5 -92.5t66.5 -194.5q0 -145 -93 -220.5t-263 -123.5l176 -184q32 35 48 60.5t38 76.5l369 -51q-44 -102 -88 -165t-150 -159 l248 -266h-512l-66 70q-85 -34 -146.5 -54.5t-159.5 -37.5t-226 -17q-126 0 -237.5 30t-196 87t-130.5 136.5t-46 180.5zM498 434q0 -76 64.5 -125t176.5 -49q92 0 211 37l-278 299q-72 -23 -123 -57.5t-51 -104.5zM834 1053q0 -68 86 -148q81 23 122 52t41 81q0 39 -28 74 t-101 35q-54 0 -87 -27t-33 -67z" />
<glyph unicode="'" horiz-adv-x="426" d="M68 1397q0 64 46 100.5t107 36.5q57 0 97 -33.5t40 -93.5q0 -25 -2 -37l-108 -534h-64l-112 512q-4 36 -4 49z" />
<glyph unicode="(" horiz-adv-x="768" d="M74 555q0 169 45.5 316t104 247.5t138.5 208.5q52 69 83 105t83 90l234 -176q-59 -85 -104.5 -174.5t-83 -251.5t-37.5 -381q0 -282 79 -516q34 -100 62 -151t90 -148l-231 -179q-62 58 -117 125q-40 47 -90.5 120.5t-99 162t-74.5 156.5q-24 59 -42 134t-29 156.5 t-11 155.5z" />
<glyph unicode=")" horiz-adv-x="768" d="M-2 1346l231 178q78 -78 117 -125q42 -51 92 -123.5t97.5 -158.5t74.5 -156q35 -90 58.5 -214.5t23.5 -234.5q0 -133 -27.5 -249t-72.5 -213.5t-91.5 -169t-97.5 -138.5q-65 -91 -165 -197l-234 179q41 58 75.5 117.5t69 153.5t57.5 226.5t23 306.5q0 282 -79 516 q-34 102 -68 164.5t-84 137.5z" />
<glyph unicode="*" horiz-adv-x="811" d="M2 1071l72 225l274 -153l-61 309h235l-63 -307l274 155l74 -221l-313 -37l229 -211l-188 -141l-132 291l-133 -287l-184 133l229 213z" />
<glyph unicode="+" horiz-adv-x="1366" d="M86 467v260h469v467h260v-467h465v-260h-465v-467h-260v467h-469z" />
<glyph unicode="," horiz-adv-x="641" d="M82 0v377h473v-346q-5 -69 -16.5 -122t-54 -117t-124.5 -109q-71 -40 -136 -51t-142 -11v168q92 11 132.5 54t53.5 157h-186z" />
<glyph unicode="-" horiz-adv-x="938" d="M76 522v359h753v-359h-753z" />
<glyph unicode="." horiz-adv-x="641" d="M84 0v377h471v-377h-471z" />
<glyph unicode="/" horiz-adv-x="981" d="M-8 0l567 1446h385l-569 -1446h-383z" />
<glyph unicode="0" horiz-adv-x="1749" d="M53 682q0 144 29 242q51 188 171.5 297t285 153.5t368.5 44.5q387 -3 580 -176q209 -190 209 -557q0 -249 -104 -412t-288 -239t-425 -76q-326 0 -533 129q-92 58 -150.5 131t-90.5 156t-42 156t-10 151zM555 705q0 -62 8 -111q7 -62 31.5 -133t92 -128t185.5 -57 q71 0 132 22t112 93q43 62 61.5 148t18.5 163q0 78 -15.5 154t-54.5 135q-79 125 -258 125q-153 -4 -235 -117q-78 -113 -78 -294z" />
<glyph unicode="1" horiz-adv-x="1749" d="M334 907v295q113 13 194.5 40.5t138.5 62.5t121 84h361v-1389h-479v971q-76 -24 -119.5 -35.5t-84.5 -16.5t-132 -12z" />
<glyph unicode="2" horiz-adv-x="1749" d="M147 0v285q30 53 51.5 85.5t60.5 76.5t106 96t151 100q39 23 103 53t243 111q128 59 174.5 93t46.5 93q0 77 -72 100t-153 23q-106 0 -162 -37q-51 -31 -65.5 -74.5t-16.5 -101.5l-426 10q11 116 23.5 173.5t58.5 125.5q35 49 81 84.5t116.5 61.5t182 39.5t261.5 13.5 q225 0 360.5 -39.5t209.5 -120.5q92 -98 92 -241q0 -93 -45.5 -166t-114.5 -123.5t-153 -89.5q-27 -13 -76 -34l-98 -42t-76 -33q-66 -27 -154.5 -71.5t-165.5 -100.5q-10 -6 -39 -28q21 2 62 2q22 2 65 2h817v-326h-1448z" />
<glyph unicode="3" horiz-adv-x="1749" d="M-8 418l461 20q0 -14 26 -48.5t60 -55.5q53 -30 121 -42.5t151 -12.5q305 0 305 161q0 140 -239 140h-308v264h115q263 0 324 24q36 16 56 44.5t21 78.5q-2 133 -237 133q-265 -4 -307 -127l-469 21q18 80 45.5 139.5t106 123t231.5 104t393 40.5q75 0 227 -8 q117 -8 214 -29.5t173 -74.5q53 -38 86.5 -87.5t47.5 -99t14 -94.5q0 -74 -31 -127q-63 -111 -242 -155q-21 -6 -57 -13q18 -2 59 -10q142 -26 224 -102.5t82 -202.5q0 -192 -131 -293t-308.5 -130.5t-380.5 -29.5q-148 0 -255 9t-207.5 36t-178.5 82q-69 49 -109.5 108 t-57.5 112t-25 102z" />
<glyph unicode="4" horiz-adv-x="1749" d="M57 252v303l820 831h555v-808h241v-326h-246v-252h-460v252h-910zM530 578h439v442z" />
<glyph unicode="5" horiz-adv-x="1749" d="M70 391l491 21q25 -74 110 -106t185 -32q123 0 212 51.5t89 153.5q0 104 -96.5 145.5t-212.5 41.5q-72 0 -127.5 -13t-86.5 -29t-59 -36l-430 8l72 793h1378l-28 -316h-973l-19 -211q83 34 194.5 60t254.5 26q309 0 481 -133q156 -123 156 -315q0 -145 -92.5 -276 t-292.5 -197q-180 -60 -453 -60q-314 0 -516 101q-95 48 -146 108t-67.5 112t-23.5 103z" />
<glyph unicode="6" horiz-adv-x="1749" d="M76 688q0 205 78 363q32 67 81.5 130t138.5 119t228 90.5t330 34.5q168 0 305 -32.5t217 -85.5q82 -52 121.5 -114.5t66.5 -137.5l-518 -23q-68 90 -227 90q-152 0 -240 -94q-54 -58 -72.5 -128t-25.5 -157q78 76 173.5 118t176 53.5t160.5 11.5q150 0 264 -32t191 -92 t116 -142.5t39 -184.5t-43.5 -193t-134.5 -159.5t-227 -106.5q-157 -41 -354 -41q-234 0 -410 58q-163 55 -262 162q-58 59 -97.5 140.5t-57 168.5t-17.5 184zM604 465q0 -111 93 -146.5t223 -35.5q132 0 200 49t68 135q0 48 -29 87.5t-90 63t-149 23.5q-58 0 -128 -10.5 t-129 -49.5t-59 -116z" />
<glyph unicode="7" horiz-adv-x="1749" d="M129 1057v329h1530l-14 -157q-8 -81 -22 -130.5t-46.5 -99t-87 -103.5t-158.5 -148q-151 -133 -240.5 -222.5t-140.5 -164t-79 -150t-62 -211.5h-549q24 156 68 271t105.5 198.5t137.5 146.5t187 138q91 55 135 86q85 55 124 90.5t52 62.5t16 64h-956z" />
<glyph unicode="8" horiz-adv-x="1749" d="M86 406q0 111 58 178.5t130.5 98t145.5 46.5q-160 39 -224.5 114.5t-64.5 160.5q0 114 79 207t253 149.5t438 56.5q190 0 328.5 -31.5t226.5 -87.5t129 -128t41 -156q0 -114 -72.5 -175.5t-146.5 -88.5q-24 -8 -43 -14t-29 -9q42 -7 95 -24t106.5 -51t91 -95.5 t37.5 -150.5q-3 -117 -63 -200.5t-166 -135t-244.5 -73.5t-298.5 -22h-49q-196 0 -340.5 33t-235.5 91t-136.5 137t-45.5 170zM592 438q1 -89 77.5 -125.5t211.5 -36.5q103 5 161.5 21.5t87.5 50t29 90.5q0 104 -81.5 132t-192.5 28q-127 0 -210 -31.5t-83 -128.5zM625 985 q0 -87 71.5 -112t180.5 -25q251 0 251 141q0 83 -75.5 108t-186.5 25q-86 0 -163.5 -27t-77.5 -110z" />
<glyph unicode="9" horiz-adv-x="1749" d="M59 350l537 12q37 -42 78.5 -66t128.5 -24q147 0 235 72q117 95 123 285q-79 -70 -182 -115t-297 -45q-273 0 -447 112.5t-174 336.5q0 117 65 227t214 178q83 38 193 58t192 26t143 6q187 0 331 -39.5t248 -122t159 -212.5t55 -310q0 -67 -9 -142.5t-36.5 -157.5 t-82.5 -163t-138 -143q-123 -92 -273.5 -123t-333.5 -31q-102 0 -202 12t-195 42q-154 49 -226.5 128.5t-105.5 198.5zM553 938q0 -107 93.5 -138.5t191.5 -31.5q307 0 307 168q0 65 -34.5 102.5t-104.5 54.5t-183 17q-112 -4 -191 -39t-79 -133z" />
<glyph unicode=":" horiz-adv-x="725" d="M164 0v377h473v-377h-473zM166 709v374h475v-374h-475z" />
<glyph unicode=";" horiz-adv-x="725" d="M160 0v377h473v-346q-5 -69 -17 -123t-54 -117t-124 -108q-71 -40 -136 -51t-142 -11v168q61 8 97.5 27t58 62t30.5 122h-186zM160 709v378h475v-378h-475z" />
<glyph unicode="&#x3c;" horiz-adv-x="1366" d="M0 592v254l1366 606v-285l-1001 -448l1001 -440v-285z" />
<glyph unicode="=" horiz-adv-x="1366" d="M0 254v260h1366v-260h-1366zM0 682v258h1366v-258h-1366z" />
<glyph unicode="&#x3e;" horiz-adv-x="1366" d="M0 -6v285l1001 440l-1001 448v285l1366 -606v-254z" />
<glyph unicode="?" horiz-adv-x="1579" d="M129 948q7 121 39 221.5t137 180.5q103 81 244.5 105t310.5 24q168 0 308 -24t241 -112q127 -112 127 -288q0 -66 -23.5 -118.5t-68 -95.5t-96.5 -75t-150 -82q-89 -43 -128 -73.5t-40 -78.5h-442q0 84 14 132.5t57.5 88t135.5 81.5q97 44 143.5 69.5t68 54.5t21.5 74 q0 52 -42 106t-177 54q-76 0 -133.5 -20.5t-95 -80t-37.5 -167.5zM592 0v377h440v-377h-440z" />
<glyph unicode="@" horiz-adv-x="1835" d="M141 487q0 193 71.5 369.5t200.5 312.5t301 212.5t369 76.5q185 0 325 -77.5t213 -212.5t73 -308q0 -183 -68 -350.5t-181.5 -271t-238.5 -103.5q-154 0 -184 139q-116 -139 -258 -139q-123 0 -204 90.5t-81 257.5q0 143 57.5 279t161 222.5t226.5 86.5q91 0 137 -36 t80 -87l18 80h187l-70 -323q-12 -63 -24 -122.5t-21.5 -123.5t-9.5 -88q0 -62 39 -62q45 0 108.5 78t108.5 202.5t45 262.5q0 119 -39 204.5t-105.5 139t-146 77t-166.5 23.5q-143 0 -280.5 -63t-245 -175.5t-169 -260.5t-61.5 -312q0 -160 58.5 -273.5t152 -180t201.5 -95 t209 -28.5q139 0 278 47t267 143q79 63 120 109l97 -125q-89 -85 -187.5 -156t-244.5 -125.5t-320 -54.5q-177 0 -362 70t-311 237t-126 434zM692 494q0 -106 44.5 -141.5t84.5 -35.5q38 0 81.5 26.5t76.5 72.5q45 60 69.5 145t24.5 154q-1 81 -39.5 126.5t-99.5 45.5 q-70 0 -126 -62t-86 -154t-30 -177z" />
<glyph unicode="A" horiz-adv-x="1835" d="M0 0l623 1446h589l627 -1446h-563l-78 236h-553l-78 -236h-567zM754 555h336l-170 489z" />
<glyph unicode="B" horiz-adv-x="1921" d="M125 0v1446h1212q111 -2 190.5 -14.5t147.5 -61.5t95.5 -122t27.5 -142q0 -256 -278 -324q90 -12 153.5 -34t116.5 -78q44 -47 63 -104.5t19 -137.5q0 -142 -72 -236t-188 -139q-143 -53 -375 -53h-1112zM643 330h524q83 0 111 12q80 29 80 125q0 41 -18.5 68t-51.5 36 q-33 11 -131 11h-514v-252zM645 895h485q81 0 109 12q64 25 64 105q0 65 -66 94q-24 12 -104 12h-488v-223z" />
<glyph unicode="C" horiz-adv-x="1921" d="M59 721q0 175 79.5 352.5t297 305.5t594.5 128q246 0 411.5 -48t255 -120t130 -143.5t63.5 -144.5l-479 -86q-22 47 -46.5 80.5t-74.5 64.5q-54 34 -119 50t-129 16q-188 0 -315 -117t-127 -336q0 -115 46.5 -217.5t142 -166t237.5 -63.5q174 0 293 97q72 59 104 145 l494 -51q-30 -99 -82 -180q-218 -336 -819 -336q-242 0 -414 53q-112 35 -211 96.5t-173.5 150t-116.5 209t-42 261.5z" />
<glyph unicode="D" horiz-adv-x="1878" d="M125 0v1446h821q107 0 196.5 -8t196 -39.5t208 -103.5t169.5 -191q101 -173 101 -395q0 -180 -66 -330q-35 -81 -97.5 -155.5t-172.5 -131.5q-79 -41 -147.5 -59.5t-138.5 -25.5t-153 -7h-917zM631 328h227q128 0 210 22.5t126 63.5q52 46 84.5 130.5t32.5 174.5 q0 98 -35.5 177t-93.5 124q-102 82 -310 82h-241v-774z" />
<glyph unicode="E" d="M123 0v1446h1524v-326h-1006v-235h930v-328h-932v-229h1028v-328h-1544z" />
<glyph unicode="F" horiz-adv-x="1536" d="M125 0v1446h1417v-326h-899v-276h825v-324h-825v-520h-518z" />
<glyph unicode="G" horiz-adv-x="2048" d="M59 705q0 85 15 155q47 261 254 432q263 219 735 219q166 0 338 -34q136 -29 238 -84t180 -146q27 -29 46 -62.5t36 -70.5l-512 -53q-121 125 -318 125q-161 0 -269 -68.5t-159 -175.5t-51 -223q0 -141 61.5 -239t163 -145.5t223.5 -47.5q102 0 193 33.5t151.5 90.5 t77.5 128h-377v327h861v-866h-447v160q-40 -39 -102 -78q-91 -54 -208.5 -89.5t-303.5 -35.5q-166 0 -312.5 46.5t-263.5 140.5t-183.5 236t-66.5 325z" />
<glyph unicode="H" horiz-adv-x="1921" d="M121 0v1446h522v-528h631v528h524v-1446h-524v555h-631v-555h-522z" />
<glyph unicode="I" horiz-adv-x="768" d="M125 0v1446h518v-1446h-518z" />
<glyph unicode="J" horiz-adv-x="938" d="M-8 0v342h117q62 2 98.5 10.5t57.5 39.5t24 100v954h518v-991q-2 -78 -8 -123.5t-29.5 -103t-71.5 -105.5q-50 -52 -115.5 -78.5t-137 -34.5t-156.5 -10h-297z" />
<glyph unicode="K" d="M123 0v1446h481v-541l486 541h626l-567 -547l633 -899h-621l-381 547l-178 -172v-375h-479z" />
<glyph unicode="L" horiz-adv-x="1409" d="M123 0v1446h520v-1094h737v-352h-1257z" />
<glyph unicode="M" horiz-adv-x="2347" d="M123 0v1446h686l365 -944l364 944h684v-1446h-512v926l-342 -926h-399l-338 922v-922h-508z" />
<glyph unicode="N" horiz-adv-x="1878" d="M127 0v1446h428l444 -488q83 -88 131.5 -145.5t124.5 -157.5q-10 249 -10 463v328h510v-1446h-430l-530 598q-79 92 -164 199q1 -41 3.5 -141.5t3 -131t0.5 -89.5t1 -128v-307h-512z" />
<glyph unicode="O" horiz-adv-x="2048" d="M61 709q0 263 134 452q135 192 346 263t456 75q154 0 289.5 -18.5t249.5 -65.5q230 -93 339.5 -283.5t109.5 -402.5q0 -64 -11 -133t-33.5 -133t-60.5 -127q-68 -115 -172 -195q-95 -75 -204 -117t-227.5 -58.5t-260.5 -16.5q-337 0 -526 92t-291 231q-46 61 -77.5 130 t-46 144.5t-14.5 162.5zM594 725q0 -188 108 -321.5t326 -133.5q128 0 209 41q112 56 163.5 172.5t51.5 241.5q0 97 -36 199.5t-130.5 177.5t-257.5 76q-116 0 -200.5 -40t-136 -108t-74.5 -147t-23 -158z" />
<glyph unicode="P" d="M125 0v1448h989q106 -2 189.5 -9t154 -30.5t123.5 -71.5q53 -47 93 -133t40 -219q0 -84 -22.5 -160t-73.5 -139q-62 -77 -151 -115.5t-189 -49.5t-246 -11h-391v-510h-516zM641 836h336q96 0 157.5 24.5t61.5 116.5q0 38 -14.5 68.5t-38.5 46.5q-40 28 -125 28h-377v-284 z" />
<glyph unicode="Q" horiz-adv-x="2048" d="M61 717q0 141 45 270.5t136 235.5q78 90 178 146t203.5 84t201 37t207.5 9q139 0 275 -18t293 -93.5t262 -230.5q48 -67 85.5 -172.5t37.5 -269.5q0 -171 -49 -276t-126 -203l250 -119l-184 -357l-465 238q-101 -26 -180 -36.5t-207 -10.5q-130 0 -244.5 15t-213.5 49 t-175 83q-150 94 -240 252t-90 367zM600 707q0 -105 31.5 -187.5t90 -138t137 -83.5t169.5 -28q138 0 233.5 57.5t144 157.5t48.5 224q0 105 -29.5 191t-85.5 147.5t-135.5 95t-177.5 33.5q-102 0 -182.5 -39t-135.5 -107t-81.5 -151.5t-26.5 -171.5z" />
<glyph unicode="R" horiz-adv-x="1792" d="M121 0v1446h1063q135 -2 228.5 -17.5t174.5 -74.5q79 -60 124.5 -158t45.5 -209q0 -78 -23.5 -149t-68.5 -125q-53 -63 -108.5 -89t-133.5 -46l363 -578h-574l-297 526h-276v-526h-518zM639 854h389q90 0 150.5 23.5t60.5 107.5q0 59 -37 92q-45 41 -133 41h-430v-264z " />
<glyph unicode="S" horiz-adv-x="1663" d="M20 430l510 14q16 -75 95 -120t225 -45q118 0 180 34q31 19 51.5 47.5t20.5 63.5q0 76 -96 111q-21 7 -98.5 22.5t-202 39t-160.5 32.5q-89 18 -166 45q-43 17 -83.5 37.5t-88 61.5t-81.5 109.5t-34 157.5q0 81 31 154t86 129q74 77 184 118t218 53.5t210 12.5 q76 0 165 -7t158 -19.5t118 -28.5q122 -39 190.5 -107.5t92 -129t36.5 -130.5l-508 -28q-14 56 -62.5 94.5t-191.5 38.5q-84 0 -155.5 -23.5t-71.5 -93.5q0 -32 16 -51q39 -50 260 -94q110 -24 177 -37.5t120 -26.5q113 -21 187 -51q135 -51 194.5 -143t59.5 -203 q0 -135 -76 -248q-61 -92 -163.5 -149.5t-250 -85t-340.5 -27.5q-421 0 -604 164q-55 49 -87.5 106t-45 104.5t-19.5 98.5z" />
<glyph unicode="T" horiz-adv-x="1579" d="M16 1122v326h1549v-326h-512v-1122h-523v1122h-514z" />
<glyph unicode="U" horiz-adv-x="1962" d="M125 516v930h516v-821q0 -72 8.5 -120.5t32.5 -90.5q45 -77 127.5 -110.5t173.5 -33.5q163 0 248 80q59 55 74.5 126.5t15.5 156.5v813h516v-758q0 -165 -15 -276.5t-69 -194.5q-172 -268 -768 -268q-429 0 -612 110q-148 73 -198 200.5t-50 256.5z" />
<glyph unicode="V" horiz-adv-x="1749" d="M-25 1446h543l232 -567q65 -160 120 -326q51 142 117 305q50 126 113.5 279t128.5 309h543l-660 -1446h-481z" />
<glyph unicode="W" horiz-adv-x="2218" d="M-27 1446h506l121 -688q16 -80 23.5 -127.5t17.5 -134.5q14 94 39 215l174 735h528l88 -410q45 -192 64.5 -287t44.5 -247q8 66 25 180l133 764h504l-349 -1446h-555l-166 651q-29 117 -39 170t-22 146q-11 -100 -21 -156.5t-38 -165.5l-168 -645h-559z" />
<glyph unicode="X" horiz-adv-x="1921" d="M-6 0l641 784l-545 662h647l226 -393l223 393h645l-539 -664l639 -782h-645l-325 502l-326 -502h-641z" />
<glyph unicode="Y" horiz-adv-x="1792" d="M-20 1446h604l239 -434q44 -90 76 -166q58 133 88 194l225 406h598l-655 -1016v-430h-512v430z" />
<glyph unicode="Z" d="M12 0v305l959 815h-881v326h1571v-309l-920 -795h918v-342h-1647z" />
<glyph unicode="[" horiz-adv-x="811" d="M156 -516v1964h614v-289h-221v-1388h219v-287h-612z" />
<glyph unicode="\" horiz-adv-x="981" d="M-8 1446h383l569 -1446h-385z" />
<glyph unicode="]" horiz-adv-x="811" d="M39 1159v289h616v-1964h-610v287h217v1388h-223z" />
<glyph unicode="^" horiz-adv-x="1493" d="M233 637l416 809h213l398 -809h-283l-225 473l-238 -473h-281z" />
<glyph unicode="_" horiz-adv-x="1024" d="M-20 -154h1064v-102h-1064v102z" />
<glyph unicode="`" horiz-adv-x="768" d="M55 1509h547l109 -282h-371z" />
<glyph unicode="a" horiz-adv-x="1622" d="M39 315q0 112 57 189q61 82 193 123q85 26 213 39.5t274 18.5t271 7q0 58 -25 88q-50 64 -209 64q-83 0 -154 -17q-56 -13 -77 -32.5t-33 -49.5h-465q9 55 23 98t48 91.5t95 87.5q167 100 547 100q389 0 542 -78q115 -53 146 -138t31 -181v-567q2 -64 12.5 -94t46.5 -66 h-502q-13 48 -18 104q-75 -32 -121.5 -50t-115.5 -38.5t-144.5 -33.5t-157.5 -13q-225 0 -350 96q-127 94 -127 252zM526 365q0 -38 37.5 -73.5t132.5 -35.5q126 0 230 61q66 38 90.5 80t38.5 101q-58 -3 -97.5 -4.5t-72 -3t-84 -5t-78.5 -6.5q-85 -7 -141 -29.5t-56 -84.5z " />
<glyph unicode="b" horiz-adv-x="1622" d="M96 0v1446h486v-457q82 58 172.5 93.5t244.5 35.5q122 0 226 -37t182 -110t121 -179t43 -241q0 -200 -90.5 -328.5t-229.5 -184.5t-286 -56q-127 0 -209.5 30t-171.5 84v-96h-488zM578 549q0 -68 30.5 -126t87 -91t131.5 -33q97 0 174.5 60t77.5 192q0 65 -26.5 119.5 t-85 87.5t-146.5 33q-132 -4 -187.5 -79.5t-55.5 -162.5z" />
<glyph unicode="c" horiz-adv-x="1663" d="M49 541q0 149 67 257.5t154 174.5q56 44 133 77.5t152 51t156 25.5t172 8q100 0 187.5 -12.5t168.5 -39t150 -67t116 -90.5q76 -79 115 -195l-477 -43q-23 72 -100 114t-169 42q-87 0 -158.5 -36.5t-111 -103.5t-39.5 -155q0 -133 85.5 -216t232.5 -83q45 0 97.5 12 t94.5 41q39 26 57 52t35 67l482 -16q-19 -67 -61 -140t-124 -137q-122 -97 -282 -130.5t-334 -33.5q-201 0 -380 52.5t-288 172.5q-60 64 -95.5 157.5t-35.5 193.5z" />
<glyph unicode="d" horiz-adv-x="1622" d="M55 539q0 114 38.5 220t112 186.5t183.5 127.5t248 47q144 0 235 -40.5t168 -102.5v471h482v-1448h-482v106q-34 -25 -68 -45t-91 -41q-125 -45 -250 -45t-232 41t-183.5 117t-118.5 180t-42 226zM537 549q0 -122 72.5 -188t176.5 -66q75 0 133 33.5t89.5 92t31.5 128.5 q0 103 -63.5 173.5t-185.5 70.5q-115 0 -184.5 -64.5t-69.5 -179.5z" />
<glyph unicode="e" horiz-adv-x="1663" d="M53 547q0 100 31 185t78 142q84 107 206 161t235.5 67.5t230.5 13.5q196 0 357.5 -42.5t276.5 -160.5q100 -100 129 -202.5t33 -235.5h-1077q18 -89 69 -139.5t114 -71t118 -20.5q75 0 143 28q36 15 55 29t46 41l504 -25q-35 -64 -83.5 -121.5t-146.5 -111.5 q-123 -67 -273.5 -91t-267.5 -24q-238 0 -419 72q-108 44 -188.5 114.5t-125.5 171t-45 220.5zM569 664h553q-15 40 -29 63t-49 51q-41 35 -94 48.5t-104 13.5q-131 0 -188.5 -52.5t-88.5 -123.5z" />
<glyph unicode="f" horiz-adv-x="811" d="M-10 760v280h162v127q2 69 13 115.5t48 85.5q32 36 73.5 53t76.5 21t116 6h336v-262q-70 4 -76 4q-63 0 -91 -14.5t-34 -43.5t-6 -92h205v-280h-184v-760h-482v760h-157z" />
<glyph unicode="g" horiz-adv-x="1622" d="M41 575q0 107 38.5 204t114.5 171t187.5 115t255.5 41q143 0 237.5 -36.5t161.5 -82.5v98h484v-995q-2 -116 -31 -202.5t-127 -161.5q-81 -62 -216.5 -109t-377.5 -47q-335 0 -528 141q-67 52 -101.5 103t-48.5 98.5t-20 91.5h489q3 -82 66.5 -120t154.5 -38 q140 0 205 60q31 30 40 65t11 109v100q-35 -21 -65.5 -36t-81.5 -31q-137 -41 -277 -41q-150 0 -280.5 57t-210.5 171t-80 275zM537 586q0 -89 72 -147t182 -58q65 0 122 24t92 72t35 115q0 71 -40.5 116.5t-103 65t-124.5 19.5q-114 -3 -174.5 -64.5t-60.5 -142.5z" />
<glyph unicode="h" horiz-adv-x="1663" d="M104 0v1446h484v-496q60 52 106.5 84t134 59t205.5 27q95 0 182 -21.5t155 -59.5t108 -87q55 -68 68.5 -150.5t13.5 -197.5v-604h-482v526q0 57 -3 93t-19 69q-21 43 -74 77t-135 34q-93 0 -146 -31q-51 -28 -76.5 -70.5t-33.5 -93.5t-10 -110v-494h-478z" />
<glyph unicode="i" horiz-adv-x="682" d="M98 1194v252h482v-252h-482zM100 0v1083h480v-1083h-480z" />
<glyph unicode="j" horiz-adv-x="682" d="M-25 -84q70 0 96 18t29 78v1073h488v-1077q-2 -87 -18.5 -155t-73.5 -127q-50 -50 -115 -72t-149 -26.5t-257 -4.5v293zM100 1192v254h488v-254h-488z" />
<glyph unicode="k" horiz-adv-x="1536" d="M98 1446h477v-709l373 346h608l-458 -397l475 -686h-535l-266 401l-194 -168v-233h-476z" />
<glyph unicode="l" horiz-adv-x="682" d="M98 0v1446h486v-1446h-486z" />
<glyph unicode="m" horiz-adv-x="2347" d="M104 0v1085h453v-180q50 100 168 146.5t250 46.5q126 0 206 -35t117 -76q25 -24 54 -72q73 83 188 133t250 50q152 0 281 -68q107 -57 138.5 -133.5t31.5 -173.5v-723h-467v588q0 69 -13 100q-34 92 -157 92q-45 0 -89.5 -17t-74.5 -65q-23 -37 -28 -74.5t-5 -103.5v-520 h-469v528q0 131 -25 177q-20 39 -63.5 62.5t-91.5 23.5q-31 0 -66.5 -10.5t-60.5 -30.5q-24 -21 -36.5 -46.5t-18 -67t-5.5 -108.5v-528h-467z" />
<glyph unicode="n" horiz-adv-x="1663" d="M100 0v1085h488v-137q109 78 214 118t257 40q107 0 186.5 -17.5t147.5 -58.5q80 -47 118.5 -110.5t49 -142t10.5 -206.5v-571h-486v496q0 95 -12 139q-17 60 -54.5 96t-83 51t-95.5 15q-99 0 -162 -52q-57 -46 -73.5 -108t-16.5 -154v-483h-488z" />
<glyph unicode="o" d="M51 541q0 147 63 255.5t172 178t245.5 103.5t287.5 36q302 0 490 -81.5t268 -210.5t80 -277q0 -185 -105 -315t-287 -194.5t-411 -64.5q-207 0 -389.5 57t-298 185t-115.5 328zM551 549q0 -102 45.5 -166t116.5 -91.5t151 -27.5q105 0 200 65t95 220q0 132 -84.5 206 t-240.5 74q-149 -4 -216 -87.5t-67 -192.5z" />
<glyph unicode="p" horiz-adv-x="1622" d="M98 -381v1466h480v-98l-3 -10q67 55 155 95t241 40q117 0 224.5 -35.5t191 -107t132 -181t48.5 -256.5q0 -124 -41.5 -228.5t-120.5 -182t-188.5 -119t-245.5 -41.5q-132 0 -219 34t-177 95v-471h-477zM578 543q0 -67 30.5 -123.5t88 -90.5t134.5 -34t133.5 33t85.5 90 t29 125q0 60 -26 115t-85 90.5t-151 35.5q-91 -4 -145 -44.5t-74 -92.5t-20 -104z" />
<glyph unicode="q" horiz-adv-x="1622" d="M51 555q0 155 55.5 264.5t144.5 174.5t195 94.5t211 29.5q150 0 236.5 -41t146.5 -96v104h480v-1468h-482v487q-72 -52 -159.5 -87t-229.5 -35q-249 0 -423.5 138t-174.5 435zM555 549q0 -69 32.5 -125.5t89 -87.5t126.5 -31q90 0 162.5 61t72.5 181q0 96 -63 167.5 t-197 71.5q-116 -7 -169.5 -77.5t-53.5 -159.5z" />
<glyph unicode="r" horiz-adv-x="938" d="M98 0v1085h484v-172q54 86 149 138q59 33 109.5 43t115.5 12v-428q-72 8 -114 8q-148 0 -211 -57q-32 -29 -40.5 -61.5t-10.5 -82.5v-485h-482z" />
<glyph unicode="s" horiz-adv-x="1493" d="M29 332l487 20q10 -39 31 -61q32 -32 92 -49t127 -17q80 0 135 23.5t55 70.5q0 23 -14 37q-17 21 -74 33.5t-180 30.5q-144 20 -254 45q-121 28 -195.5 60t-116.5 91t-42 156q0 222 219 286t459 64q173 0 314 -32.5t241 -112.5t133 -215l-479 -21q-13 71 -91 94t-149 23 q-73 0 -122.5 -22t-49.5 -64q0 -17 9.5 -29.5t27.5 -21t55 -19.5q39 -10 186.5 -29t247.5 -32q112 -19 186 -42t127.5 -79.5t53.5 -159.5q0 -121 -102 -223q-82 -77 -218 -124.5t-370 -47.5q-174 0 -323.5 28t-235.5 73q-88 47 -125 109.5t-45 156.5z" />
<glyph unicode="t" horiz-adv-x="811" d="M-23 760v280h156l4 367h467v-367h176v-280h-174v-357q1 -47 18.5 -66.5t50.5 -24.5t107 -5v-307h-309q-87 2 -140 8t-94.5 22.5t-70.5 45.5q-32 42 -38.5 75t-8.5 95l2 73l6 441h-152z" />
<glyph unicode="u" horiz-adv-x="1663" d="M102 426v657h486v-538q0 -65 10.5 -110t48.5 -83q36 -33 86 -47t94 -14q129 0 193 74q37 39 48 89.5t13 118.5v510h484v-1083h-471v147q-81 -70 -186.5 -121t-293.5 -51q-106 0 -204 27q-134 39 -203 119.5t-85.5 154t-19.5 150.5z" />
<glyph unicode="v" horiz-adv-x="1493" d="M-6 1085h524l141 -372q27 -67 48.5 -129.5t40.5 -128.5q39 145 79 243l148 387h522l-500 -1085h-497z" />
<glyph unicode="w" horiz-adv-x="2218" d="M-2 1085h528l74 -467q23 -146 31 -217q15 87 29 136t49 135l174 413h487l152 -415q30 -84 41 -131t22 -144q21 126 41 223l90 467h508l-391 -1085h-477l-174 483q-40 110 -66 213q-26 -98 -72 -215l-198 -481h-486z" />
<glyph unicode="x" d="M-6 0l571 569l-526 516h588l227 -286l229 286h588l-528 -520l569 -565h-586l-276 332l-270 -332h-586z" />
<glyph unicode="y" horiz-adv-x="1450" d="M-6 1085h526l96 -288q48 -145 66.5 -221t40.5 -211q23 124 33.5 170t50.5 184l123 366h530l-514 -1126q-38 -78 -62.5 -121t-63.5 -86t-97 -76q-39 -21 -82.5 -33t-92 -15t-140.5 -5h-254v307h223q98 0 98 64q0 17 -20 67z" />
<glyph unicode="z" horiz-adv-x="1493" d="M45 0v309l715 473h-660v303h1323v-305l-714 -473h708v-307h-1372z" />
<glyph unicode="{" horiz-adv-x="725" d="M33 446v177q89 18 114 75t25 154v195q2 170 14 249t64 138q34 37 75 52.5t132.5 22.5t267.5 13v-174q-74 -19 -107 -72q-14 -21 -18 -68t-6 -125v-84q0 -125 -4.5 -203t-21.5 -128.5t-55.5 -81t-109.5 -51.5q68 -18 108 -50.5t57 -82t21.5 -128.5t4.5 -204v-86 q2 -76 6 -123t18 -70q22 -34 43.5 -47t63.5 -25v-174q-176 6 -267.5 13t-132.5 22.5t-75 52.5q-52 59 -64 138t-14 249v197q0 97 -25 154t-114 75z" />
<glyph unicode="|" horiz-adv-x="469" d="M104 -512v2048h261v-2048h-261z" />
<glyph unicode="}" horiz-adv-x="725" d="M0 -281q40 11 62.5 24.5t43.5 47.5q15 22 18.5 63.5t6.5 129.5v86q2 162 6 223t20.5 110t57 81t107.5 51q-70 21 -109 51t-55.5 80.5t-20.5 110t-6 222.5v84q-3 88 -6.5 130t-18.5 63q-32 53 -106 72v174q176 -6 267.5 -13t132.5 -22.5t75 -52.5q37 -43 53 -94.5 t19.5 -103.5t5.5 -189v-195q0 -66 7.5 -107t38.5 -75.5t93 -46.5v-177q-90 -19 -114.5 -75.5t-24.5 -153.5v-197q-2 -137 -5.5 -189t-19.5 -103.5t-53 -94.5q-34 -37 -75 -52.5t-132.5 -22.5t-267.5 -13v174z" />
<glyph unicode="~" horiz-adv-x="1493" d="M211 614q41 56 76.5 93.5t97.5 69.5t145 32q53 0 100 -16t111 -48q78 -35 113 -50t60.5 -22t54.5 -7q97 0 207 127l106 -215q-60 -68 -145 -119t-174 -51q-54 0 -96 14.5t-117 48.5q-92 46 -133 61t-80 15q-60 0 -98.5 -27.5t-114.5 -116.5z" />
<glyph unicode="&#xa1;" horiz-adv-x="682" d="M66 0v281q3 88 7.5 167t14.5 203l21 260h385l18 -260q19 -210 25 -370v-281h-471zM109 1067v379h385v-379h-385z" />
<glyph unicode="&#xa2;" d="M72 535q0 137 64.5 265.5t225.5 220.5t431 107v244h182v-244q176 -7 314 -59.5t225 -140.5t124 -203l-475 -39q-39 112 -188 145v-571q89 10 134 56t73 102l481 -17q-27 -75 -65.5 -142t-108.5 -126q-76 -64 -168 -98t-161.5 -44.5t-184.5 -21.5v-280h-182v278 q-105 3 -219.5 28t-196.5 62q-148 72 -226.5 196t-78.5 282zM588 549q0 -125 63 -201q22 -22 41.5 -35.5t31 -19t34 -13.5t35.5 -12v559q-205 -67 -205 -278z" />
<glyph unicode="&#xa3;" horiz-adv-x="1663" d="M16 201q0 64 29.5 123t94 96t161.5 37q69 0 121.5 -12t181.5 -56q-6 66 -24 105t-64 100h-364v151h237q-53 60 -95 133.5t-42 165.5q0 111 86 205q150 162 549 162q112 0 202 -8.5t164 -30.5q104 -29 169.5 -84.5t96.5 -119t41.5 -125t14.5 -132.5l-440 -24 q-2 85 -10 123t-40 67q-50 45 -145 45q-80 0 -132 -33.5t-52 -107.5q0 -32 9 -58.5t39.5 -78t63.5 -103.5h312v-149h-226q31 -76 31 -129q0 -65 -15.5 -102.5t-47.5 -86.5q88 -30 147 -30q92 0 119.5 49.5t32.5 116.5h407q-2 -101 -10 -163t-35 -114q-35 -66 -94 -105.5 t-127.5 -55t-138.5 -15.5q-128 0 -230.5 31.5t-255.5 95.5q-73 -51 -149 -80.5t-142 -40t-114 -10.5q-130 0 -223 59.5t-93 188.5zM242 193q0 -37 32 -50.5t66 -13.5q51 0 87.5 17.5t78.5 48.5q-118 57 -184 57q-80 0 -80 -59z" />
<glyph unicode="&#xa4;" horiz-adv-x="1366" d="M12 219l168 166q-39 63 -63.5 132.5t-24.5 176.5q0 75 13.5 134.5t31.5 97.5t41 78l-162 163l193 195l164 -164q147 88 311 88q108 0 178 -25t131 -63l164 164l197 -195l-168 -163q38 -63 63 -134.5t25 -177.5q0 -168 -88 -309l166 -168l-197 -195l-164 168 q-62 -35 -134.5 -60.5t-174.5 -25.5q-55 0 -100 8.5t-87 23t-64.5 26t-57.5 30.5l-166 -165zM346 694q0 -90 45 -168t123 -123t168 -45t168 45t123 123t45 168q0 71 -26 132.5t-71 106t-107 71t-132 26.5t-131 -26t-106.5 -71.5t-72 -108t-26.5 -130.5z" />
<glyph unicode="&#xa5;" horiz-adv-x="1792" d="M-20 1411h604l239 -426q40 -74 76 -168q36 92 88 199l225 395h598l-380 -575h241v-234h-395l-98 -147h493v-234h-516v-221h-512v221h-522v234h500l-101 147h-399v234h244z" />
<glyph unicode="&#xa6;" horiz-adv-x="469" d="M104 358h261v-716h-261v716zM104 666v716h261v-716h-261z" />
<glyph unicode="&#xa7;" horiz-adv-x="1493" d="M43 559q0 84 37.5 145.5t82.5 96t93 59.5q-37 29 -65 58t-52 79.5t-24 118.5q0 99 63 184q52 69 136 113t193.5 63t242.5 19q143 0 286.5 -25t233.5 -88q77 -54 106.5 -117.5t44.5 -138.5l-463 -26q-4 47 -28 71q-52 52 -150 52q-72 0 -118 -30t-46 -75q0 -37 35.5 -58.5 t149.5 -53.5q53 -15 152 -41.5t171 -49.5q83 -24 151.5 -56.5t120.5 -95t52 -157.5q0 -73 -40 -142t-105 -112q-38 -24 -97 -43q62 -28 119 -88.5t57 -173.5q0 -90 -67 -191.5t-215 -156.5q-143 -53 -361 -53q-295 0 -469 86q-198 98 -221 327l469 31q8 -45 22 -77 t61.5 -58.5t137.5 -26.5q52 0 103 18.5t51 80.5q0 48 -39 70t-133 46q-192 51 -228 61t-118 36q-117 37 -180 68t-107.5 92t-44.5 159zM475 625q0 -84 109 -123q60 -22 143 -43t223 -53q28 33 44 61.5t16 67.5q0 56 -40 87.5t-91 49.5q-67 24 -338 86q-28 -26 -47 -56 t-19 -77z" />
<glyph unicode="&#xa8;" horiz-adv-x="768" d="M-182 1257v254h424v-254h-424zM526 1257v254h424v-254h-424z" />
<glyph unicode="&#xa9;" d="M123 723q0 153 56.5 286t159 233t234.5 155t279 55q155 0 291 -57.5t234.5 -159t152 -234t53.5 -282.5q0 -146 -57 -281t-155.5 -233.5t-233 -154.5t-285.5 -56q-189 0 -357.5 92.5t-270 259.5t-101.5 377zM188 723q0 -182 89.5 -335t242 -241t332.5 -88 q137 0 259.5 50.5t213.5 141.5t142 213t51 255q0 180 -87 333.5t-238.5 243.5t-336.5 90q-138 0 -260 -51t-214 -143t-143 -213t-51 -256zM356 723q0 140 62 258.5t178.5 187t273.5 68.5q145 0 238.5 -51t163.5 -123l-180 -172q-52 50 -104.5 75t-119.5 25 q-127 0 -192.5 -78.5t-65.5 -187.5q0 -79 32 -139t92 -92.5t138 -32.5q122 0 220 92l180 -164q-91 -96 -189.5 -134t-212.5 -38q-122 0 -218.5 40t-162.5 110.5t-99.5 161.5t-33.5 194z" />
<glyph unicode="&#xaa;" horiz-adv-x="1024" d="M68 989q0 148 200 193q65 13 121 16q11 1 64.5 1.5t108 1t67.5 1.5q-13 49 -33.5 69.5t-87.5 20.5q-74 0 -100.5 -14.5t-42.5 -52.5h-269q7 52 15.5 79.5t36.5 57.5t83 51q58 23 130 31t157 8q233 0 320 -59q43 -29 56 -62t19 -92v-321q3 -41 7 -61t11 -32t23 -28h-303 l-24 59q-82 -41 -140 -59.5t-147 -18.5q-122 0 -197 57.5t-75 153.5zM358 1010q0 -29 29.5 -46.5t65.5 -17.5q52 0 100 31q45 28 78 100q-117 0 -178 -6q-95 -8 -95 -61z" />
<glyph unicode="&#xab;" horiz-adv-x="1067" d="M80 406v466l422 269v-373l-191 -131l191 -129v-375zM575 403v463l422 273v-377l-190 -125l190 -131v-375z" />
<glyph unicode="&#xac;" horiz-adv-x="1366" d="M0 465v260h1104h260v-725h-260v465h-1104z" />
<glyph unicode="&#xad;" horiz-adv-x="938" d="M76 522v359h753v-359h-753z" />
<glyph unicode="&#xae;" d="M123 723q0 154 56.5 287t159.5 233.5t234.5 154.5t278.5 54q154 0 289.5 -57.5t234.5 -159t153 -233.5t54 -281q0 -147 -56.5 -282t-155.5 -234t-234 -155t-287 -56q-139 0 -272 53.5t-235.5 151.5t-161 233.5t-58.5 290.5zM188 723q0 -182 89.5 -335t242 -241t332.5 -88 q138 0 259.5 50.5t213 142t142.5 213.5t51 256q0 180 -87 332.5t-238.5 242.5t-336.5 90q-137 0 -258.5 -51t-214.5 -143t-144 -213t-51 -256zM512 262v938h334q152 0 221 -22q82 -25 124 -92t42 -140q0 -91 -46.5 -136.5t-117.5 -78.5q48 -30 69.5 -62.5t35.5 -113.5 q19 -118 33.5 -176.5t45.5 -116.5h-258q-19 40 -30.5 89t-20.5 114q-15 104 -28.5 137.5t-49 43t-129.5 9.5v-393h-225zM737 834h99q49 0 81.5 4t49.5 14q19 11 30 34t11 48q0 44 -24.5 66.5t-68.5 25.5q-18 2 -178 2v-194z" />
<glyph unicode="&#xaf;" horiz-adv-x="768" d="M-182 1257v199h1132v-199h-1132z" />
<glyph unicode="&#xb0;" horiz-adv-x="725" d="M10 1171q0 94 45.5 176t127 130.5t179.5 48.5q76 0 141.5 -28t112.5 -76.5t74 -113t27 -137.5q0 -95 -46.5 -175.5t-130 -128.5t-178.5 -48q-96 0 -176.5 47.5t-128 128t-47.5 176.5zM250 1176q0 -45 34 -79t81 -34q46 0 80 34t34 79q0 31 -15.5 57.5t-41 41.5t-57.5 15 q-49 0 -82 -33t-33 -81z" />
<glyph unicode="&#xb1;" horiz-adv-x="1366" d="M86 0v260h1194v-260h-1194zM86 760v260h469v426h260v-426h465v-260h-465v-428h-260v428h-469z" />
<glyph unicode="&#xb2;" horiz-adv-x="1151" d="M106 553v209q62 88 115 135.5t128.5 87.5t250.5 119q92 40 92 86q0 63 -139 63q-84 0 -109.5 -38.5t-27.5 -94.5l-287 6q6 68 15 112.5t36 90t76 76.5q29 18 81.5 33.5t114 23.5t121.5 8q67 0 158.5 -9.5t153.5 -39.5q71 -33 106 -91t35 -122q0 -96 -57.5 -155 t-157.5 -109q-6 -3 -52.5 -23.5t-115 -50.5t-88.5 -41q-26 -14 -34.5 -19.5t-41.5 -25.5h561v-231h-934z" />
<glyph unicode="&#xb3;" horiz-adv-x="1151" d="M33 842l313 12q11 -21 21.5 -34.5t34.5 -30t63 -26t98 -9.5q83 0 133 20q49 17 49 64q0 71 -112 75h-227v195q215 0 251 8q72 8 72 66q0 71 -123 71q-101 0 -140.5 -20.5t-66.5 -56.5l-311 12q7 45 17 77.5t38.5 69.5t81.5 66t129 45.5t137.5 20t129.5 3.5q117 0 211 -16 t155 -59q43 -29 69.5 -78.5t26.5 -99.5q0 -82 -39.5 -119t-117.5 -70q99 -31 133 -74q45 -59 45 -123q0 -87 -45 -149q-37 -53 -105 -88q-127 -66 -379 -66q-201 0 -294 31q-91 27 -140.5 70.5t-69 90.5t-38.5 122z" />
<glyph unicode="&#xb4;" horiz-adv-x="768" d="M63 1227l103 282h539l-279 -282h-363z" />
<glyph unicode="&#xb5;" horiz-adv-x="1663" d="M102 -418v1503h486v-538q0 -66 10 -110t49 -83q34 -31 87 -46t97 -15q250 7 250 282v510h484v-1085h-471v150q-81 -94 -146.5 -129t-148.5 -35q-54 0 -91 10.5t-55 22t-65 42.5v-479h-486z" />
<glyph unicode="&#xb6;" horiz-adv-x="1366" d="M168 1006q0 208 135 329q76 70 154 89.5t174 21.5h512v-160h-74v-1628h-172v1628h-242v-1628h-172v940q-61 19 -95.5 33.5t-74.5 44.5q-71 56 -108 144t-37 186z" />
<glyph unicode="&#xb8;" horiz-adv-x="768" d="M94 -475l45 113q87 -29 152 -29q64 0 97.5 22.5t33.5 51.5q0 36 -26.5 46.5t-49.5 10.5q-40 0 -80 -25l-69 72l231 276h147l-98 -159q48 -12 86 -29.5t66 -50.5q43 -55 43 -117q0 -61 -40 -115t-115.5 -86t-178.5 -32q-71 0 -123 13t-121 38z" />
<glyph unicode="&#xb9;" horiz-adv-x="1151" d="M254 1118v213q70 6 137.5 29t145.5 86h251v-903h-331v610q-70 -21 -104 -26t-99 -9z" />
<glyph unicode="&#xba;" horiz-adv-x="1067" d="M72 1118q0 86 36 151t97.5 104.5t139 59t167.5 21.5q247 0 365 -94.5t118 -237.5q0 -91 -45 -162.5t-131 -115.5q-68 -33 -144 -45.5t-143 -12.5q-165 0 -312.5 74t-147.5 258zM383 1122q0 -66 41 -101.5t117 -35.5q63 0 105 36t42 101q0 56 -34.5 98t-123.5 42 q-84 -1 -115.5 -46t-31.5 -94z" />
<glyph unicode="&#xbb;" horiz-adv-x="1067" d="M72 131v375l188 129l-188 129v377l422 -273v-465zM565 129v373l189 133l-189 129v375l422 -275v-465z" />
<glyph unicode="&#xbc;" horiz-adv-x="2560" d="M254 1118v213q70 6 137.5 29t145.5 86h251v-903h-331v610q-70 -21 -104 -26t-99 -9zM659 66l1012 1441l178 -123l-1011 -1443zM1466 164v203l525 532h360v-512h139v-223h-139v-164h-315v164h-570zM1796 387h240v246z" />
<glyph unicode="&#xbd;" horiz-adv-x="2560" d="M254 1118v213q70 6 137.5 29t145.5 86h251v-903h-331v610q-70 -21 -104 -26t-99 -9zM623 63l1013 1444l176 -123l-1011 -1445zM1516 10v209q61 87 114 135t128.5 88t250.5 119q90 39 90 86q0 64 -137 64q-85 0 -108.5 -37.5t-28.5 -95.5l-287 6q8 99 31.5 166t95.5 112 q31 19 83.5 35t114 23.5t119.5 7.5q65 0 156.5 -9.5t153.5 -39.5q72 -35 106.5 -92.5t34.5 -120.5q0 -96 -57 -155.5t-158 -109.5q-37 -17 -70.5 -31.5t-104 -46t-79.5 -36.5q-13 -7 -34 -19.5t-44 -25.5h561v-232h-931z" />
<glyph unicode="&#xbe;" horiz-adv-x="2560" d="M35 842l313 12q11 -21 21.5 -34.5t34.5 -30t63 -26t98 -9.5q83 0 133 20q50 18 50 64q0 71 -113 75h-229v195q215 0 251 8q72 8 72 66q0 71 -123 71q-101 0 -140.5 -20.5t-66.5 -56.5l-311 12q7 45 17 77.5t38.5 69.5t81.5 66t129 45.5t137.5 20t129.5 3.5q117 0 211 -16 t155 -59q43 -29 69.5 -78.5t26.5 -99.5q0 -82 -39.5 -119t-117.5 -70q67 -20 93.5 -37.5t41.5 -36.5q45 -59 45 -123q0 -87 -45 -149q-38 -54 -105 -88q-127 -66 -378 -66q-202 0 -295 31q-91 27 -140.5 70.5t-69 90.5t-38.5 122zM766 66l1014 1441l178 -123l-1012 -1443z M1466 160v202l525 537h360v-516h139v-223h-139v-164h-315v164h-570zM1796 391h240v248z" />
<glyph unicode="&#xbf;" horiz-adv-x="1579" d="M41 389q0 125 83 205.5t257 165.5q68 36 97 53.5t48.5 41.5t20.5 58h442q0 -123 -38 -183.5t-169 -119.5q-145 -66 -189 -99.5t-44 -98.5q0 -49 42 -104.5t177 -55.5q119 0 192.5 55.5t73.5 214.5l414 -24q-5 -80 -15.5 -141.5t-47.5 -132.5t-113 -130 q-55 -43 -125 -68.5t-140.5 -37.5t-150 -16.5t-139.5 -4.5q-78 0 -145 4t-139 16t-140 39t-125 74q-48 43 -77 95.5t-39.5 100.5t-10.5 93zM545 1069v377h440v-377h-440z" />
<glyph unicode="&#xc0;" horiz-adv-x="1835" d="M0 0l623 1446h589l627 -1446h-563l-78 236h-553l-78 -236h-567zM510 1835h547l108 -283h-370zM754 555h336l-170 489z" />
<glyph unicode="&#xc1;" horiz-adv-x="1835" d="M0 0l623 1446h589l627 -1446h-563l-78 236h-553l-78 -236h-567zM680 1552l102 283h539l-279 -283h-362zM754 555h336l-170 489z" />
<glyph unicode="&#xc2;" horiz-adv-x="1835" d="M0 0l623 1446h589l627 -1446h-563l-78 236h-553l-78 -236h-567zM410 1583l184 252h657l179 -252h-390l-122 168l-123 -168h-385zM754 555h336l-170 489z" />
<glyph unicode="&#xc3;" horiz-adv-x="1835" d="M0 0l623 1446h589l627 -1446h-563l-78 236h-553l-78 -236h-567zM373 1534q10 73 31.5 128t66.5 97q90 90 250 90q57 0 168 -26q94 -23 156 -37t81 -14q60 0 72 57h260q-6 -104 -53 -173.5t-119 -103.5t-153 -34q-54 0 -164 20q-226 53 -254 53q-69 0 -80 -57h-262z M754 555h336l-170 489z" />
<glyph unicode="&#xc4;" horiz-adv-x="1835" d="M0 0l623 1446h589l627 -1446h-563l-78 236h-553l-78 -236h-567zM352 1581v254h424v-254h-424zM754 555h336l-170 489zM1061 1581v254h424v-254h-424z" />
<glyph unicode="&#xc5;" horiz-adv-x="1835" d="M0 0l623 1446h589l627 -1446h-563l-78 236h-553l-78 -236h-567zM641 1686q0 63 37.5 109.5t99.5 71t127 27.5q58 0 111.5 -12t95.5 -38t66 -66t24 -92q0 -60 -34 -106.5t-99.5 -73.5t-153.5 -27q-75 0 -138 25t-99.5 72.5t-36.5 109.5zM754 555h336l-170 489zM795 1686 q0 -46 41.5 -62t78.5 -16q45 0 89.5 17.5t44.5 62.5q0 41 -48 58t-104 17q-38 -2 -70 -20t-32 -57z" />
<glyph unicode="&#xc6;" horiz-adv-x="2304" d="M-14 0l805 1446h1454v-326h-656v-235h561v-328h-561v-229h672v-328h-1176v231h-471l-118 -231h-510zM778 553h307v592z" />
<glyph unicode="&#xc7;" horiz-adv-x="1921" d="M59 721q0 124 41.5 257.5t146.5 253t299 197.5t484 78q246 0 411.5 -48t256 -121t129 -141t65.5 -146l-481 -86q-21 46 -46 80t-75 65q-54 34 -119 50t-129 16q-187 0 -314.5 -117.5t-127.5 -335.5q0 -86 25.5 -163.5t78.5 -143t134 -103t188 -37.5q83 0 160 25.5 t135 71.5q30 23 51 49t32 49.5t19 46.5l496 -51q-23 -67 -58 -137t-109 -147t-189 -130q-88 -40 -178.5 -62.5t-183.5 -31t-202 -8.5l-28 -49q106 -29 151 -80q43 -50 43 -117q0 -97 -89 -165t-245 -68q-73 0 -125 13t-120 38l45 112q48 -15 80.5 -21.5t70.5 -6.5 q63 0 98 22t35 52q0 36 -26.5 46.5t-50.5 10.5q-40 0 -80 -27l-68 74l148 176q-85 10 -127 17t-109 26q-130 39 -254 125t-206.5 234.5t-82.5 357.5z" />
<glyph unicode="&#xc8;" d="M123 0v1446h1524v-326h-1006v-235h930v-328h-932v-229h1028v-328h-1544zM477 1835h547l109 -283h-371z" />
<glyph unicode="&#xc9;" d="M123 0v1446h1524v-326h-1006v-235h930v-328h-932v-229h1028v-328h-1544zM647 1552l103 283h538l-278 -283h-363z" />
<glyph unicode="&#xca;" d="M123 0v1446h1524v-326h-1006v-235h930v-328h-932v-229h1028v-328h-1544zM367 1583l184 252h657l178 -252h-389l-123 168l-122 -168h-385z" />
<glyph unicode="&#xcb;" d="M123 0v1446h1524v-326h-1006v-235h930v-328h-932v-229h1028v-328h-1544zM289 1581v254h424v-254h-424zM997 1581v254h424v-254h-424z" />
<glyph unicode="&#xcc;" horiz-adv-x="768" d="M-25 1835h547l109 -283h-371zM125 0v1446h518v-1446h-518z" />
<glyph unicode="&#xcd;" horiz-adv-x="768" d="M125 0v1446h518v-1446h-518zM145 1552l103 283h538l-278 -283h-363z" />
<glyph unicode="&#xce;" horiz-adv-x="768" d="M-125 1583l184 252h658l178 -252h-389l-123 168l-123 -168h-385zM125 0v1446h518v-1446h-518z" />
<glyph unicode="&#xcf;" horiz-adv-x="768" d="M-182 1581v254h424v-254h-424zM125 0v1446h518v-1446h-518zM526 1581v254h424v-254h-424z" />
<glyph unicode="&#xd0;" horiz-adv-x="1878" d="M0 633v198h125v615h821q157 -2 285.5 -21t261 -94t221.5 -223q103 -172 103 -399q0 -177 -66 -330q-87 -192 -270 -287q-75 -39 -147.5 -58.5t-143.5 -25.5t-148 -8h-917v633h-125zM631 328h264q84 2 161.5 18t137.5 68q52 46 84.5 131t32.5 176q0 99 -36.5 177 t-92.5 122q-66 53 -142 67.5t-161 14.5h-248v-271h434v-198h-434v-305z" />
<glyph unicode="&#xd1;" horiz-adv-x="1878" d="M127 0v1446h428l444 -488q83 -88 131.5 -145.5t124.5 -157.5q-10 249 -10 463v328h510v-1446h-430l-530 598q-79 92 -164 199q1 -41 3.5 -141.5t3 -131t0.5 -89.5t1 -128v-307h-512zM393 1534q13 81 33.5 132t65.5 93q86 90 249 90q58 0 168 -26q94 -23 156 -37t82 -14 q57 0 72 57h260q-6 -102 -53.5 -172.5t-119 -104.5t-153.5 -34q-54 0 -164 20q-85 21 -140 33t-65 14t-24 4t-25 2q-68 0 -80 -57h-262z" />
<glyph unicode="&#xd2;" horiz-adv-x="2048" d="M61 709q0 263 134 452q135 192 346 263t456 75q154 0 289.5 -18.5t249.5 -65.5q230 -93 339.5 -283.5t109.5 -402.5q0 -64 -11 -133t-33.5 -133t-60.5 -127q-68 -115 -172 -195q-95 -75 -204 -117t-227.5 -58.5t-260.5 -16.5q-337 0 -526 92t-291 231q-46 61 -77.5 130 t-46 144.5t-14.5 162.5zM594 725q0 -188 108 -321.5t326 -133.5q128 0 209 41q112 56 163.5 172.5t51.5 241.5q0 97 -36 199.5t-130.5 177.5t-257.5 76q-116 0 -200.5 -40t-136 -108t-74.5 -147t-23 -158zM616 1835h547l109 -283h-371z" />
<glyph unicode="&#xd3;" horiz-adv-x="2048" d="M61 709q0 263 134 452q135 192 346 263t456 75q154 0 289.5 -18.5t249.5 -65.5q230 -93 339.5 -283.5t109.5 -402.5q0 -64 -11 -133t-33.5 -133t-60.5 -127q-68 -115 -172 -195q-95 -75 -204 -117t-227.5 -58.5t-260.5 -16.5q-337 0 -526 92t-291 231q-46 61 -77.5 130 t-46 144.5t-14.5 162.5zM594 725q0 -188 108 -321.5t326 -133.5q128 0 209 41q112 56 163.5 172.5t51.5 241.5q0 97 -36 199.5t-130.5 177.5t-257.5 76q-116 0 -200.5 -40t-136 -108t-74.5 -147t-23 -158zM786 1552l103 283h538l-278 -283h-363z" />
<glyph unicode="&#xd4;" horiz-adv-x="2048" d="M61 709q0 263 134 452q135 192 346 263t456 75q154 0 289.5 -18.5t249.5 -65.5q230 -93 339.5 -283.5t109.5 -402.5q0 -64 -11 -133t-33.5 -133t-60.5 -127q-68 -115 -172 -195q-95 -75 -204 -117t-227.5 -58.5t-260.5 -16.5q-337 0 -526 92t-291 231q-46 61 -77.5 130 t-46 144.5t-14.5 162.5zM516 1583l184 252h658l178 -252h-389l-123 168l-123 -168h-385zM594 725q0 -188 108 -321.5t326 -133.5q128 0 209 41q112 56 163.5 172.5t51.5 241.5q0 97 -36 199.5t-130.5 177.5t-257.5 76q-116 0 -200.5 -40t-136 -108t-74.5 -147t-23 -158z" />
<glyph unicode="&#xd5;" horiz-adv-x="2048" d="M61 709q0 263 134 452q135 192 346 263t456 75q154 0 289.5 -18.5t249.5 -65.5q230 -93 339.5 -283.5t109.5 -402.5q0 -64 -11 -133t-33.5 -133t-60.5 -127q-68 -115 -172 -195q-95 -75 -204 -117t-227.5 -58.5t-260.5 -16.5q-337 0 -526 92t-291 231q-46 61 -77.5 130 t-46 144.5t-14.5 162.5zM479 1534q13 81 33.5 132t65.5 93q86 90 249 90q58 0 168 -26q94 -23 156 -37t82 -14q57 0 72 57h260q-6 -102 -53.5 -172.5t-119 -104.5t-153.5 -34q-54 0 -164 20q-85 21 -140 33t-65 14t-24 4t-25 2q-68 0 -80 -57h-262zM594 725 q0 -188 108 -321.5t326 -133.5q128 0 209 41q112 56 163.5 172.5t51.5 241.5q0 97 -36 199.5t-130.5 177.5t-257.5 76q-116 0 -200.5 -40t-136 -108t-74.5 -147t-23 -158z" />
<glyph unicode="&#xd6;" horiz-adv-x="2048" d="M61 709q0 263 134 452q135 192 346 263t456 75q154 0 289.5 -18.5t249.5 -65.5q230 -93 339.5 -283.5t109.5 -402.5q0 -64 -11 -133t-33.5 -133t-60.5 -127q-68 -115 -172 -195q-95 -75 -204 -117t-227.5 -58.5t-260.5 -16.5q-337 0 -526 92t-291 231q-46 61 -77.5 130 t-46 144.5t-14.5 162.5zM457 1577v254h424v-254h-424zM594 725q0 -188 108 -321.5t326 -133.5q128 0 209 41q112 56 163.5 172.5t51.5 241.5q0 97 -36 199.5t-130.5 177.5t-257.5 76q-116 0 -200.5 -40t-136 -108t-74.5 -147t-23 -158zM1165 1577v254h424v-254h-424z" />
<glyph unicode="&#xd7;" horiz-adv-x="1366" d="M125 225l373 371l-373 375l184 180l373 -369l375 369l182 -180l-371 -375l371 -371l-182 -186l-375 373l-373 -373z" />
<glyph unicode="&#xd8;" horiz-adv-x="2048" d="M51 2l238 201q-53 57 -79 87.5t-65 99.5t-62.5 157t-23.5 194q0 141 47.5 260.5t120.5 203.5t152 136q89 61 200 96.5t219.5 49.5t223.5 14q91 0 195 -10.5t198 -38.5q72 -20 116.5 -42t119.5 -67l247 203l84 -104l-217 -182q92 -97 154.5 -214t62.5 -313 q0 -92 -18.5 -179.5t-58.5 -166.5q-57 -114 -158 -207q-131 -121 -306.5 -175t-406.5 -54q-89 0 -199 11.5t-214 41.5q-80 25 -120 46t-110 67l-256 -213zM573 737q0 -52 13 -120.5t47 -127.5l694 582q-129 105 -307 105q-180 0 -279.5 -74.5t-133.5 -174t-34 -190.5z M713 383q61 -57 140 -84t169 -27q121 0 225 51t165 153.5t61 246.5q0 139 -62 242z" />
<glyph unicode="&#xd9;" horiz-adv-x="1962" d="M125 516v930h516v-821q0 -72 8.5 -120.5t32.5 -90.5q45 -77 127.5 -110.5t173.5 -33.5q163 0 248 80q59 55 74.5 126.5t15.5 156.5v813h516v-758q0 -165 -15 -276.5t-69 -194.5q-172 -268 -768 -268q-429 0 -612 110q-148 73 -198 200.5t-50 256.5zM573 1835h547 l109 -283h-371z" />
<glyph unicode="&#xda;" horiz-adv-x="1962" d="M125 516v930h516v-821q0 -72 8.5 -120.5t32.5 -90.5q45 -77 127.5 -110.5t173.5 -33.5q163 0 248 80q59 55 74.5 126.5t15.5 156.5v813h516v-758q0 -165 -15 -276.5t-69 -194.5q-172 -268 -768 -268q-429 0 -612 110q-148 73 -198 200.5t-50 256.5zM743 1552l103 283h538 l-278 -283h-363z" />
<glyph unicode="&#xdb;" horiz-adv-x="1962" d="M125 516v930h516v-821q0 -72 8.5 -120.5t32.5 -90.5q45 -77 127.5 -110.5t173.5 -33.5q163 0 248 80q59 55 74.5 126.5t15.5 156.5v813h516v-758q0 -165 -15 -276.5t-69 -194.5q-172 -268 -768 -268q-429 0 -612 110q-148 73 -198 200.5t-50 256.5zM473 1583l184 252h658 l178 -252h-389l-123 168l-123 -168h-385z" />
<glyph unicode="&#xdc;" horiz-adv-x="1962" d="M125 516v930h516v-821q0 -72 8.5 -120.5t32.5 -90.5q45 -77 127.5 -110.5t173.5 -33.5q163 0 248 80q59 55 74.5 126.5t15.5 156.5v813h516v-758q0 -165 -15 -276.5t-69 -194.5q-172 -268 -768 -268q-429 0 -612 110q-148 73 -198 200.5t-50 256.5zM416 1581v254h424 v-254h-424zM1124 1581v254h424v-254h-424z" />
<glyph unicode="&#xdd;" horiz-adv-x="1792" d="M-20 1446h604l239 -434q44 -90 76 -166q58 133 88 194l225 406h598l-655 -1016v-430h-512v430zM657 1552l103 283h538l-278 -283h-363z" />
<glyph unicode="&#xde;" d="M125 0v1448h516v-223h473q106 -2 190 -9t154 -31t123 -71q36 -31 66.5 -82.5t47.5 -117t17 -142.5q0 -281 -199 -399q-89 -54 -204.5 -69t-276.5 -17h-391v-287h-516zM641 612h326q75 0 114.5 6.5t63.5 24.5q51 39 51 119q0 32 -16 63.5t-50 48.5q-43 23 -120 23h-369 v-285z" />
<glyph unicode="&#xdf;" horiz-adv-x="1579" d="M100 0v922q3 97 6 141.5t18.5 103t49.5 111.5t92 96q43 31 100 53.5t115 34t126 17.5t145 6q115 0 238.5 -14t199.5 -46q107 -42 155 -122t48 -189q0 -108 -52 -174q-24 -33 -63 -58t-78 -34q-33 -8 -47 -10q19 0 51 -4q99 -11 167 -54t104.5 -101t51.5 -119t15 -124 q0 -77 -21.5 -155.5t-76.5 -147.5q-46 -59 -133.5 -109.5t-259.5 -50.5q-78 0 -150 10.5t-180 30.5v260q77 -18 129 -18q60 0 102 25q86 46 86 192q0 115 -55 170q-35 32 -83 38.5t-179 6.5v221q100 0 154.5 23.5t54.5 114.5q0 151 -166 151q-80 0 -118.5 -36t-48 -86 t-9.5 -128v-948h-488z" />
<glyph unicode="&#xe0;" horiz-adv-x="1622" d="M39 315q0 112 57 189q61 82 193 123q85 26 213 39.5t274 18.5t271 7q0 58 -25 88q-50 64 -209 64q-83 0 -154 -17q-56 -13 -77 -32.5t-33 -49.5h-465q9 55 23 98t48 91.5t95 87.5q167 100 547 100q389 0 542 -78q115 -53 146 -138t31 -181v-567q2 -64 12.5 -94t46.5 -66 h-502q-13 48 -18 104q-75 -32 -121.5 -50t-115.5 -38.5t-144.5 -33.5t-157.5 -13q-225 0 -350 96q-127 94 -127 252zM405 1509h547l109 -282h-371zM526 365q0 -38 37.5 -73.5t132.5 -35.5q126 0 230 61q66 38 90.5 80t38.5 101q-58 -3 -97.5 -4.5t-72 -3t-84 -5t-78.5 -6.5 q-85 -7 -141 -29.5t-56 -84.5z" />
<glyph unicode="&#xe1;" horiz-adv-x="1622" d="M39 315q0 112 57 189q61 82 193 123q85 26 213 39.5t274 18.5t271 7q0 58 -25 88q-50 64 -209 64q-83 0 -154 -17q-56 -13 -77 -32.5t-33 -49.5h-465q9 55 23 98t48 91.5t95 87.5q167 100 547 100q389 0 542 -78q115 -53 146 -138t31 -181v-567q2 -64 12.5 -94t46.5 -66 h-502q-13 48 -18 104q-75 -32 -121.5 -50t-115.5 -38.5t-144.5 -33.5t-157.5 -13q-225 0 -350 96q-127 94 -127 252zM526 365q0 -38 37.5 -73.5t132.5 -35.5q126 0 230 61q66 38 90.5 80t38.5 101q-58 -3 -97.5 -4.5t-72 -3t-84 -5t-78.5 -6.5q-85 -7 -141 -29.5t-56 -84.5z M575 1227l103 282h539l-279 -282h-363z" />
<glyph unicode="&#xe2;" horiz-adv-x="1622" d="M39 315q0 112 57 189q61 82 193 123q85 26 213 39.5t274 18.5t271 7q0 58 -25 88q-50 64 -209 64q-83 0 -154 -17q-56 -13 -77 -32.5t-33 -49.5h-465q9 55 23 98t48 91.5t95 87.5q167 100 547 100q389 0 542 -78q115 -53 146 -138t31 -181v-567q2 -64 12.5 -94t46.5 -66 h-502q-13 48 -18 104q-75 -32 -121.5 -50t-115.5 -38.5t-144.5 -33.5t-157.5 -13q-225 0 -350 96q-127 94 -127 252zM305 1257l184 252h658l178 -252h-389l-123 168l-123 -168h-385zM526 365q0 -38 37.5 -73.5t132.5 -35.5q126 0 230 61q66 38 90.5 80t38.5 101 q-58 -3 -97.5 -4.5t-72 -3t-84 -5t-78.5 -6.5q-85 -7 -141 -29.5t-56 -84.5z" />
<glyph unicode="&#xe3;" horiz-adv-x="1622" d="M39 315q0 112 57 189q61 82 193 123q85 26 213 39.5t274 18.5t271 7q0 58 -25 88q-50 64 -209 64q-83 0 -154 -17q-56 -13 -77 -32.5t-33 -49.5h-465q9 55 23 98t48 91.5t95 87.5q167 100 547 100q389 0 542 -78q115 -53 146 -138t31 -181v-567q2 -64 12.5 -94t46.5 -66 h-502q-13 48 -18 104q-75 -32 -121.5 -50t-115.5 -38.5t-144.5 -33.5t-157.5 -13q-225 0 -350 96q-127 94 -127 252zM268 1208q7 48 17 85t29 73t53 68q90 90 249 90q54 0 168 -27q43 -10 82 -19t89.5 -19.5t66.5 -10.5q59 0 72 57h260q-6 -102 -53.5 -172.5t-119 -104.5 t-153.5 -34q-35 0 -85.5 6.5t-78.5 11.5q-225 54 -254 54q-68 0 -80 -58h-262zM526 365q0 -38 37.5 -73.5t132.5 -35.5q126 0 230 61q66 38 90.5 80t38.5 101q-58 -3 -97.5 -4.5t-72 -3t-84 -5t-78.5 -6.5q-85 -7 -141 -29.5t-56 -84.5z" />
<glyph unicode="&#xe4;" horiz-adv-x="1622" d="M39 315q0 112 57 189q61 82 193 123q85 26 213 39.5t274 18.5t271 7q0 58 -25 88q-50 64 -209 64q-83 0 -154 -17q-56 -13 -77 -32.5t-33 -49.5h-465q9 55 23 98t48 91.5t95 87.5q167 100 547 100q389 0 542 -78q115 -53 146 -138t31 -181v-567q2 -64 12.5 -94t46.5 -66 h-502q-13 48 -18 104q-75 -32 -121.5 -50t-115.5 -38.5t-144.5 -33.5t-157.5 -13q-225 0 -350 96q-127 94 -127 252zM242 1263v254h424v-254h-424zM526 365q0 -38 37.5 -73.5t132.5 -35.5q126 0 230 61q66 38 90.5 80t38.5 101q-58 -3 -97.5 -4.5t-72 -3t-84 -5t-78.5 -6.5 q-85 -7 -141 -29.5t-56 -84.5zM950 1263v254h424v-254h-424z" />
<glyph unicode="&#xe5;" horiz-adv-x="1622" d="M39 315q0 112 57 189q61 82 193 123q85 26 213 39.5t274 18.5t271 7q0 58 -25 88q-50 64 -209 64q-83 0 -154 -17q-56 -13 -77 -32.5t-33 -49.5h-465q9 55 23 98t48 91.5t95 87.5q167 100 547 100q389 0 542 -78q115 -53 146 -138t31 -181v-567q2 -64 12.5 -94t46.5 -66 h-502q-13 48 -18 104q-75 -32 -121.5 -50t-115.5 -38.5t-144.5 -33.5t-157.5 -13q-225 0 -350 96q-127 94 -127 252zM510 1397q0 97 79 156.5t200 62.5q97 0 166 -32t103 -84t34 -105q0 -68 -40.5 -118.5t-108.5 -76.5t-150 -26q-125 0 -204 65t-79 158zM526 365 q0 -38 37.5 -73.5t132.5 -35.5q126 0 230 61q66 38 90.5 80t38.5 101q-58 -3 -97.5 -4.5t-72 -3t-84 -5t-78.5 -6.5q-85 -7 -141 -29.5t-56 -84.5zM662 1397q0 -40 37 -66t94 -26t98 23t41 69t-46 67t-103 21q-54 -3 -87.5 -29t-33.5 -59z" />
<glyph unicode="&#xe6;" horiz-adv-x="2304" d="M35 332q0 76 32.5 140t102.5 106q62 42 144 61t209 26.5t421 14.5q-6 76 -53.5 128t-167.5 56q-149 0 -186 -112l-431 10q18 90 59.5 163.5t164.5 132t350 58.5q156 0 248.5 -21t140.5 -50t117 -87q46 44 105 81.5t144 62t199 24.5q127 0 221 -26.5t157.5 -67 t105.5 -86.5q62 -68 92.5 -150t37.5 -149t9 -180h-871q27 -101 85 -155t149 -54q76 0 129.5 35.5t75.5 81.5l440 -56q-49 -122 -143 -202q-88 -75 -217 -112.5t-273 -37.5q-161 0 -268.5 34t-166.5 79t-107 100q-57 -54 -119.5 -98t-174.5 -79.5t-268 -35.5q-321 0 -440 166 q-27 47 -40 96.5t-13 102.5zM477 350q0 -52 37.5 -83t97.5 -31q72 0 154 43q76 39 123 94.5t67 103.5q-120 -1 -204 -1.5t-144.5 -8.5t-95.5 -35t-35 -82zM1401 664h428q-14 60 -58.5 119t-138.5 59q-160 0 -231 -178z" />
<glyph unicode="&#xe7;" horiz-adv-x="1663" d="M49 541q0 147 67 256.5t154 175.5q56 44 133 77.5t152 51t156 25.5t172 8q135 0 252 -24.5t210.5 -71.5t157.5 -113q51 -52 76.5 -99.5t40.5 -95.5l-477 -43q-14 46 -55 81.5t-98 55t-116 19.5q-88 0 -159.5 -36.5t-110.5 -103.5t-39 -155q0 -87 38.5 -154.5t111 -105 t168.5 -37.5q116 0 192 51q39 26 57 52t35 67l480 -16q-21 -71 -60 -141.5t-123 -135.5q-201 -158 -583 -164l-37 -61q48 -12 84.5 -29t66.5 -53q43 -50 43 -117q0 -95 -89 -163t-244 -68q-71 0 -123 13t-121 38l45 113q87 -29 149 -29q65 0 99 22t34 50q0 59 -77 59 q-36 0 -78 -27l-70 74l156 184q-245 20 -394.5 107.5t-212.5 210t-63 252.5z" />
<glyph unicode="&#xe8;" horiz-adv-x="1663" d="M53 547q0 100 31 185t78 142q84 107 206 161t235.5 67.5t230.5 13.5q196 0 357.5 -42.5t276.5 -160.5q100 -100 129 -202.5t33 -235.5h-1077q18 -89 69 -139.5t114 -71t118 -20.5q75 0 143 28q36 15 55 29t46 41l504 -25q-35 -64 -83.5 -121.5t-146.5 -111.5 q-123 -67 -273.5 -91t-267.5 -24q-238 0 -419 72q-108 44 -188.5 114.5t-125.5 171t-45 220.5zM426 1509h547l109 -282h-371zM569 664h553q-15 40 -29 63t-49 51q-41 35 -94 48.5t-104 13.5q-131 0 -188.5 -52.5t-88.5 -123.5z" />
<glyph unicode="&#xe9;" horiz-adv-x="1663" d="M53 547q0 100 31 185t78 142q84 107 206 161t235.5 67.5t230.5 13.5q196 0 357.5 -42.5t276.5 -160.5q100 -100 129 -202.5t33 -235.5h-1077q18 -89 69 -139.5t114 -71t118 -20.5q75 0 143 28q36 15 55 29t46 41l504 -25q-35 -64 -83.5 -121.5t-146.5 -111.5 q-123 -67 -273.5 -91t-267.5 -24q-238 0 -419 72q-108 44 -188.5 114.5t-125.5 171t-45 220.5zM569 664h553q-15 40 -29 63t-49 51q-41 35 -94 48.5t-104 13.5q-131 0 -188.5 -52.5t-88.5 -123.5zM595 1227l103 282h539l-279 -282h-363z" />
<glyph unicode="&#xea;" horiz-adv-x="1663" d="M53 547q0 100 31 185t78 142q84 107 206 161t235.5 67.5t230.5 13.5q196 0 357.5 -42.5t276.5 -160.5q100 -100 129 -202.5t33 -235.5h-1077q18 -89 69 -139.5t114 -71t118 -20.5q75 0 143 28q36 15 55 29t46 41l504 -25q-35 -64 -83.5 -121.5t-146.5 -111.5 q-123 -67 -273.5 -91t-267.5 -24q-238 0 -419 72q-108 44 -188.5 114.5t-125.5 171t-45 220.5zM326 1257l184 252h658l178 -252h-389l-123 168l-123 -168h-385zM569 664h553q-15 40 -29 63t-49 51q-41 35 -94 48.5t-104 13.5q-131 0 -188.5 -52.5t-88.5 -123.5z" />
<glyph unicode="&#xeb;" horiz-adv-x="1663" d="M53 547q0 100 31 185t78 142q84 107 206 161t235.5 67.5t230.5 13.5q196 0 357.5 -42.5t276.5 -160.5q100 -100 129 -202.5t33 -235.5h-1077q18 -89 69 -139.5t114 -71t118 -20.5q75 0 143 28q36 15 55 29t46 41l504 -25q-35 -64 -83.5 -121.5t-146.5 -111.5 q-123 -67 -273.5 -91t-267.5 -24q-238 0 -419 72q-108 44 -188.5 114.5t-125.5 171t-45 220.5zM269 1257v254h424v-254h-424zM569 664h553q-15 40 -29 63t-49 51q-41 35 -94 48.5t-104 13.5q-131 0 -188.5 -52.5t-88.5 -123.5zM977 1257v254h424v-254h-424z" />
<glyph unicode="&#xec;" horiz-adv-x="682" d="M-66 1509h547l109 -282h-371zM100 0v1085h480v-1085h-480z" />
<glyph unicode="&#xed;" horiz-adv-x="682" d="M100 0v1085h480v-1085h-480zM104 1227l103 282h539l-279 -282h-363z" />
<glyph unicode="&#xee;" horiz-adv-x="682" d="M-166 1257l184 252h658l178 -252h-389l-123 168l-123 -168h-385zM100 0v1085h480v-1085h-480z" />
<glyph unicode="&#xef;" horiz-adv-x="682" d="M-223 1257v254h424v-254h-424zM100 0v1085h480v-1085h-480zM485 1257v254h424v-254h-424z" />
<glyph unicode="&#xf0;" d="M51 543q0 147 64.5 256t171.5 179.5t234 104t253 33.5q140 0 232 -37q28 -9 69 -28q0 3 -33.5 47.5t-40.5 50.5q-32 39 -75 80l-422 -51l-47 127l336 41q-62 52 -123 98l440 51q91 -74 113 -96l256 33l59 -129l-192 -23q108 -121 151 -184q78 -118 120 -242t42 -252 q0 -175 -61 -279t-140 -173q-52 -44 -115 -80.5t-185 -67.5t-300 -31q-91 0 -160 9q-169 17 -293.5 68.5t-202.5 128t-114.5 169.5t-36.5 197zM551 551q0 -150 93 -218.5t220 -68.5q76 0 143 30.5t109.5 95t42.5 155.5q0 133 -82.5 208.5t-242.5 75.5q-102 -3 -165.5 -45 t-90.5 -104t-27 -129z" />
<glyph unicode="&#xf1;" horiz-adv-x="1663" d="M100 0v1085h488v-137q109 78 214 118t257 40q107 0 186.5 -17.5t147.5 -58.5q80 -47 118.5 -110.5t49 -142t10.5 -206.5v-571h-486v496q0 95 -12 139q-17 60 -54.5 96t-83 51t-95.5 15q-99 0 -162 -52q-57 -46 -73.5 -108t-16.5 -154v-483h-488zM288 1208q7 48 17 85 t29 73t53 68q90 90 249 90q54 0 168 -27q43 -10 82 -19t89.5 -19.5t66.5 -10.5q59 0 72 57h260q-6 -102 -53.5 -172.5t-119 -104.5t-153.5 -34q-35 0 -85.5 6.5t-78.5 11.5q-225 54 -254 54q-68 0 -80 -58h-262z" />
<glyph unicode="&#xf2;" d="M51 541q0 147 63 255.5t172 178t245.5 103.5t287.5 36q302 0 490 -81.5t268 -210.5t80 -277q0 -185 -105 -315t-287 -194.5t-411 -64.5q-207 0 -389.5 57t-298 185t-115.5 328zM446 1509h547l109 -282h-371zM551 549q0 -102 45.5 -166t116.5 -91.5t151 -27.5 q105 0 200 65t95 220q0 132 -84.5 206t-240.5 74q-149 -4 -216 -87.5t-67 -192.5z" />
<glyph unicode="&#xf3;" d="M51 541q0 147 63 255.5t172 178t245.5 103.5t287.5 36q302 0 490 -81.5t268 -210.5t80 -277q0 -185 -105 -315t-287 -194.5t-411 -64.5q-207 0 -389.5 57t-298 185t-115.5 328zM551 549q0 -102 45.5 -166t116.5 -91.5t151 -27.5q105 0 200 65t95 220q0 132 -84.5 206 t-240.5 74q-149 -4 -216 -87.5t-67 -192.5zM616 1227l103 282h539l-279 -282h-363z" />
<glyph unicode="&#xf4;" d="M51 541q0 147 63 255.5t172 178t245.5 103.5t287.5 36q302 0 490 -81.5t268 -210.5t80 -277q0 -185 -105 -315t-287 -194.5t-411 -64.5q-207 0 -389.5 57t-298 185t-115.5 328zM346 1257l184 252h658l178 -252h-389l-123 168l-123 -168h-385zM551 549q0 -102 45.5 -166 t116.5 -91.5t151 -27.5q105 0 200 65t95 220q0 132 -84.5 206t-240.5 74q-149 -4 -216 -87.5t-67 -192.5z" />
<glyph unicode="&#xf5;" d="M51 541q0 147 63 255.5t172 178t245.5 103.5t287.5 36q302 0 490 -81.5t268 -210.5t80 -277q0 -185 -105 -315t-287 -194.5t-411 -64.5q-207 0 -389.5 57t-298 185t-115.5 328zM309 1208q7 48 17 85t29 73t53 68q90 90 249 90q54 0 168 -27q43 -10 82 -19t89.5 -19.5 t66.5 -10.5q59 0 72 57h260q-6 -102 -53.5 -172.5t-119 -104.5t-153.5 -34q-35 0 -85.5 6.5t-78.5 11.5q-225 54 -254 54q-68 0 -80 -58h-262zM551 549q0 -102 45.5 -166t116.5 -91.5t151 -27.5q105 0 200 65t95 220q0 132 -84.5 206t-240.5 74q-149 -4 -216 -87.5 t-67 -192.5z" />
<glyph unicode="&#xf6;" d="M51 541q0 147 63 255.5t172 178t245.5 103.5t287.5 36q302 0 490 -81.5t268 -210.5t80 -277q0 -185 -105 -315t-287 -194.5t-411 -64.5q-207 0 -389.5 57t-298 185t-115.5 328zM285 1257v254h424v-254h-424zM551 549q0 -102 45.5 -166t116.5 -91.5t151 -27.5 q105 0 200 65t95 220q0 132 -84.5 206t-240.5 74q-149 -4 -216 -87.5t-67 -192.5zM993 1257v254h424v-254h-424z" />
<glyph unicode="&#xf7;" horiz-adv-x="1366" d="M2 465v260h1364v-260h-1364zM518 227q0 67 47 116.5t119 49.5q45 0 83 -23t59.5 -62t21.5 -81q0 -66 -46 -115t-118 -49q-69 0 -117.5 46.5t-48.5 117.5zM518 961q0 66 47 115.5t119 49.5q70 0 117 -48.5t47 -116.5q0 -66 -45.5 -115t-120.5 -49q-44 0 -81.5 20.5 t-60 57.5t-22.5 86z" />
<glyph unicode="&#xf8;" d="M51 547q0 87 26 168t77 147q200 256 692 256q132 0 248.5 -20t193.5 -49q62 -24 113 -54l162 111l63 -90l-131 -90q21 -21 50 -56.5t51.5 -77.5t39.5 -103t17 -138q0 -114 -34.5 -198.5t-75.5 -130t-91 -85.5q-207 -160 -592 -160q-215 0 -366 39q-63 17 -100 34t-97 50 l-162 -110l-61 92l129 90q-40 40 -72 85t-56 119t-24 171zM526 555q0 -64 35 -139l510 354q-81 59 -219 59q-152 0 -239 -68.5t-87 -205.5zM631 330q32 -21 54.5 -33.5t68.5 -22.5t102 -10q125 0 224.5 65.5t99.5 215.5q0 43 -9 74t-24 63z" />
<glyph unicode="&#xf9;" horiz-adv-x="1663" d="M102 426v657h486v-538q0 -65 10.5 -110t48.5 -83q36 -33 86 -47t94 -14q129 0 193 74q37 39 48 89.5t13 118.5v510h484v-1083h-471v147q-81 -70 -186.5 -121t-293.5 -51q-106 0 -204 27q-134 39 -203 119.5t-85.5 154t-19.5 150.5zM405 1509h547l109 -282h-371z" />
<glyph unicode="&#xfa;" horiz-adv-x="1663" d="M102 426v657h486v-538q0 -65 10.5 -110t48.5 -83q36 -33 86 -47t94 -14q129 0 193 74q37 39 48 89.5t13 118.5v510h484v-1083h-471v147q-81 -70 -186.5 -121t-293.5 -51q-106 0 -204 27q-134 39 -203 119.5t-85.5 154t-19.5 150.5zM628 1227l103 282h539l-279 -282h-363z " />
<glyph unicode="&#xfb;" horiz-adv-x="1663" d="M102 426v657h486v-538q0 -65 10.5 -110t48.5 -83q36 -33 86 -47t94 -14q129 0 193 74q37 39 48 89.5t13 118.5v510h484v-1083h-471v147q-81 -70 -186.5 -121t-293.5 -51q-106 0 -204 27q-134 39 -203 119.5t-85.5 154t-19.5 150.5zM326 1257l184 252h658l178 -252h-389 l-123 168l-123 -168h-385z" />
<glyph unicode="&#xfc;" horiz-adv-x="1663" d="M102 426v657h486v-538q0 -65 10.5 -110t48.5 -83q36 -33 86 -47t94 -14q129 0 193 74q37 39 48 89.5t13 118.5v510h484v-1083h-471v147q-81 -70 -186.5 -121t-293.5 -51q-106 0 -204 27q-134 39 -203 119.5t-85.5 154t-19.5 150.5zM267 1255v254h424v-254h-424zM975 1255 v254h424v-254h-424z" />
<glyph unicode="&#xfd;" horiz-adv-x="1450" d="M-6 1085h526l96 -288q48 -145 66.5 -221t40.5 -211q23 124 33.5 170t50.5 184l123 366h530l-514 -1126q-38 -78 -62.5 -121t-63.5 -86t-97 -76q-39 -21 -82.5 -33t-92 -15t-140.5 -5h-254v307h223q98 0 98 64q0 17 -20 67zM522 1227l103 282h539l-279 -282h-363z" />
<glyph unicode="&#xfe;" horiz-adv-x="1622" d="M98 -381v1829h480v-461v-10q64 55 152 95t241 40q117 0 224.5 -35.5t191 -107t132 -181t48.5 -256.5q0 -165 -73 -295t-209 -203t-312 -73q-96 0 -169 19t-121.5 44.5t-107.5 65.5v-471h-477zM578 543q0 -67 30.5 -123.5t88 -90.5t134.5 -34q116 0 182 71.5t66 176.5 q0 60 -26 115t-85 90.5t-151 35.5q-92 -4 -145 -44.5t-73.5 -93t-20.5 -103.5z" />
<glyph unicode="&#xff;" horiz-adv-x="1450" d="M-6 1085h526l96 -288q48 -145 66.5 -221t40.5 -211q23 124 33.5 170t50.5 184l123 366h530l-514 -1126q-38 -78 -62.5 -121t-63.5 -86t-97 -76q-39 -21 -82.5 -33t-92 -15t-140.5 -5h-254v307h223q98 0 98 64q0 17 -20 67zM162 1257v254h424v-254h-424zM870 1257v254h424 v-254h-424z" />
<glyph unicode="&#x152;" horiz-adv-x="2304" d="M57 711q0 235 95.5 411.5t256.5 269.5t351 93q120 0 202.5 -29t151.5 -67v57h1135v-326h-666v-235h584v-328h-588v-229h682v-328h-1153v63q-196 -98 -395 -98q-137 0 -256.5 51.5t-209.5 150t-140 237.5t-50 307zM483 705q0 -112 32.5 -195t85 -132.5t113 -72 t117.5 -22.5q44 0 101 11t104 38q39 20 74 59v664q-102 104 -254 104q-176 0 -274.5 -130t-98.5 -324z" />
<glyph unicode="&#x153;" horiz-adv-x="2304" d="M51 528q0 174 78 307t225.5 206t343.5 73q185 0 288 -46t181 -114q54 45 108.5 79.5t143 60.5t209.5 26q118 0 212.5 -27t159 -68t111.5 -91q59 -65 90 -142.5t39.5 -138.5t16.5 -174h-877q24 -133 93 -179t135 -46q55 0 112 32.5t84 96.5l437 -55q-21 -59 -42 -98.5 t-63 -84.5q-177 -182 -506 -182q-133 0 -225.5 26.5t-146 61.5t-97.5 74q-41 -37 -73.5 -59.5t-81.5 -45.5q-143 -59 -310 -59q-163 0 -311.5 61.5t-241 189.5t-92.5 316zM492 547q0 -139 64.5 -211t160.5 -72q110 0 168.5 83.5t58.5 213.5q0 131 -65.5 199.5t-169.5 68.5 q-55 -2 -103 -27t-81 -88.5t-33 -166.5zM1393 670h417q-14 75 -68 124.5t-132 49.5q-90 0 -143 -52.5t-74 -121.5z" />
<glyph unicode="&#x178;" horiz-adv-x="1792" d="M-20 1446h604l239 -434q44 -90 76 -166q58 133 88 194l225 406h598l-655 -1016v-430h-512v430zM330 1581v254h424v-254h-424zM1038 1581v254h424v-254h-424z" />
<glyph unicode="&#x2c6;" horiz-adv-x="768" d="M-125 1257l184 252h658l178 -252h-389l-123 168l-123 -168h-385z" />
<glyph unicode="&#x2dc;" horiz-adv-x="768" d="M-158 1208q7 48 17 85t29 73t53 68q90 90 249 90q54 0 168 -27q43 -10 82 -19t89.5 -19.5t66.5 -10.5q59 0 72 57h260q-6 -102 -53.5 -172.5t-119 -104.5t-153.5 -34q-35 0 -85.5 6.5t-78.5 11.5q-225 54 -254 54q-68 0 -80 -58h-262z" />
<glyph unicode="&#x2000;" horiz-adv-x="947" />
<glyph unicode="&#x2001;" horiz-adv-x="1894" />
<glyph unicode="&#x2002;" horiz-adv-x="947" />
<glyph unicode="&#x2003;" horiz-adv-x="1894" />
<glyph unicode="&#x2004;" horiz-adv-x="631" />
<glyph unicode="&#x2005;" horiz-adv-x="473" />
<glyph unicode="&#x2006;" horiz-adv-x="315" />
<glyph unicode="&#x2007;" horiz-adv-x="315" />
<glyph unicode="&#x2008;" horiz-adv-x="236" />
<glyph unicode="&#x2009;" horiz-adv-x="378" />
<glyph unicode="&#x200a;" horiz-adv-x="105" />
<glyph unicode="&#x2010;" horiz-adv-x="938" d="M76 522v359h753v-359h-753z" />
<glyph unicode="&#x2011;" horiz-adv-x="938" d="M76 522v359h753v-359h-753z" />
<glyph unicode="&#x2012;" horiz-adv-x="938" d="M76 522v359h753v-359h-753z" />
<glyph unicode="&#x2013;" horiz-adv-x="1749" d="M74 522v359h1599v-359h-1599z" />
<glyph unicode="&#x2014;" horiz-adv-x="2134" d="M90 520v365h1954v-365h-1954z" />
<glyph unicode="&#x2018;" horiz-adv-x="641" d="M86 702v398q0 79 18.5 142.5t90 121.5t154.5 74t204 20v-166q-78 -10 -119 -39.5t-54 -70t-15 -97.5h188v-383h-467z" />
<glyph unicode="&#x2019;" horiz-adv-x="641" d="M84 698v172q94 10 135 49t51 156h-184v371h469v-322q-4 -109 -25 -182.5t-96 -136.5q-74 -63 -161 -84t-189 -23z" />
<glyph unicode="&#x201a;" horiz-adv-x="641" d="M82 0v377h473v-346q-5 -103 -42 -193.5t-153 -154.5q-71 -40 -136 -51t-142 -11v168q65 8 101 28t56 63t29 120h-186z" />
<glyph unicode="&#x201c;" horiz-adv-x="1280" d="M88 713v366q4 105 23 173t90 124q112 88 352 88v-166q-89 -14 -135 -55.5t-53 -152.5h190v-377h-467zM727 713v338q3 83 13 139t54.5 121t140 107.5t257.5 45.5v-166q-111 -17 -144.5 -70t-37.5 -138h184v-377h-467z" />
<glyph unicode="&#x201d;" horiz-adv-x="1280" d="M86 696v166q116 19 147 70.5t35 136.5h-182v377h467v-336q-2 -101 -28 -186t-128 -154.5t-311 -73.5zM725 1069v377h467v-367q-4 -103 -23.5 -172t-89.5 -123q-47 -38 -114.5 -58t-119 -24.5t-118.5 -7.5v168q90 16 134.5 56.5t51.5 150.5h-188z" />
<glyph unicode="&#x201e;" horiz-adv-x="1280" d="M86 0v377h467v-338q-2 -100 -28 -185t-128.5 -154t-310.5 -73v166q116 19 147 70.5t35 136.5h-182zM725 0v377h467v-367q-4 -103 -23.5 -172t-89.5 -123q-47 -38 -114.5 -58t-119 -24.5t-118.5 -7.5v168q89 16 134 57.5t52 149.5h-188z" />
<glyph unicode="&#x2022;" horiz-adv-x="682" d="M25 721q0 85 42 158t115 117t164 44q82 0 154 -38.5t115.5 -112t43.5 -168.5q-2 -88 -40.5 -161t-109.5 -115t-161 -42q-74 0 -134 27t-103 75t-64.5 104t-21.5 112z" />
<glyph unicode="&#x2026;" horiz-adv-x="2048" d="M104 0v377h471v-377h-471zM788 0v377h472v-377h-472zM1473 0v377h471v-377h-471z" />
<glyph unicode="&#x202f;" horiz-adv-x="378" />
<glyph unicode="&#x2039;" horiz-adv-x="555" d="M72 403v463l422 273v-377l-189 -125l189 -131v-375z" />
<glyph unicode="&#x203a;" horiz-adv-x="555" d="M63 129v373l187 133l-187 129v375l422 -275v-465z" />
<glyph unicode="&#x205f;" horiz-adv-x="473" />
<glyph unicode="&#x2122;" horiz-adv-x="1409" d="M0 1309v137h588v-137h-207v-543h-172v543h-209zM643 766v680h217l156 -492l145 492h221v-680h-170q1 193 6.5 317t14.5 185q-18 -75 -29 -111l-114 -391h-154l-121 393q-18 69 -29 105q4 -22 9 -80t9.5 -166.5t4.5 -251.5h-166z" />
<glyph unicode="&#x25fc;" horiz-adv-x="1085" d="M0 0v1085h1085v-1085h-1085z" />
</font>
</defs>
</svg>
